<?xml version="1.0" standalone="no"?>
<!DOCTYPE svg PUBLIC "-//W3C//DTD SVG 1.1//EN" "http://www.w3.org/Graphics/SVG/1.1/DTD/svg11.dtd" >
<svg xmlns="http://www.w3.org/2000/svg">
<metadata>Generated by IcoMoon</metadata>
<defs>
<font id="AE-icons" horiz-adv-x="1024">
<font-face units-per-em="1024" ascent="960" descent="-64" />
<missing-glyph horiz-adv-x="1024" />
<glyph unicode="&#x20;" horiz-adv-x="512" d="" />
<glyph unicode="&#xe900;" glyph-name="group" d="M985.6 648.533c-25.6 64-64 115.2-110.933 162.133s-102.4 81.067-162.133 110.933c-64 25.6-132.267 38.4-200.533 38.4-46.933 0-93.867-4.267-136.533-17.067s-85.333-29.867-123.733-51.2c-34.133-25.6-72.533-51.2-102.4-81.067s-55.467-68.267-81.067-102.4c-21.333-38.4-38.4-81.067-51.2-123.733s-17.067-89.6-17.067-136.533 4.267-93.867 17.067-136.533c12.8-42.667 29.867-85.333 51.2-123.733s46.933-72.533 81.067-102.4c29.867-29.867 64-59.733 102.4-81.067s76.8-38.4 123.733-51.2c42.667-12.8 89.6-17.067 136.533-17.067s93.867 4.267 136.533 17.067c42.667 12.8 85.333 29.867 123.733 51.2s72.533 46.933 102.4 81.067c29.867 29.867 59.733 64 81.067 102.4s38.4 76.8 51.2 123.733c12.8 42.667 17.067 89.6 17.067 136.533 0 68.267-12.8 136.533-38.4 200.533zM281.6 392.533c-4.267-8.533-8.533-21.333-8.533-34.133v-93.867h-72.533c-4.267 0-8.533 4.267-12.8 8.533s-4.267 8.533-4.267 17.067v89.6c0 8.533 4.267 17.067 12.8 21.333l110.933 46.933c-12.8 8.533-25.6 21.333-34.133 34.133-8.533 17.067-12.8 34.133-12.8 51.2 0 25.6 8.533 51.2 25.6 68.267s34.133 29.867 59.733 29.867c17.067 0 29.867-4.267 42.667-12.8-8.533-8.533-8.533-21.333-12.8-29.867 0-8.533-4.267-21.333-4.267-34.133 0-17.067 4.267-34.133 8.533-51.2s12.8-29.867 21.333-42.667c-4.267-4.267-8.533-8.533-17.067-12.8l-76.8-34.133c-8.533-4.267-17.067-12.8-25.6-21.333zM712.533 264.533v-17.067c0-8.533-4.267-12.8-8.533-17.067s-8.533-8.533-17.067-8.533h-354.133c-8.533 0-12.8 4.267-17.067 8.533s-8.533 12.8-8.533 17.067v110.933c0 12.8 4.267 21.333 17.067 25.6l102.4 46.933 38.4 17.067c-17.067 12.8-29.867 25.6-42.667 46.933-8.533 21.333-12.8 38.4-12.8 59.733 0 12.8 0 21.333 4.267 34.133 4.267 25.6 17.067 46.933 34.133 59.733 17.067 17.067 38.4 25.6 64 25.6s46.933-8.533 64-25.6c17.067-17.067 29.867-38.4 38.4-64 0-4.267 4.267-12.8 4.267-17.067s0-8.533 0-17.067c0-8.533 0-21.333-4.267-29.867s-4.267-17.067-8.533-25.6c-4.267-12.8-12.8-21.333-17.067-29.867-8.533-8.533-17.067-17.067-25.6-21.333l42.667-21.333 98.133-46.933c8.533-4.267 12.8-12.8 12.8-25.6v-85.333zM844.8 285.867c0-4.267 0-12.8-4.267-17.067s-8.533-8.533-12.8-8.533h-76.8v93.867c0 12.8-4.267 21.333-8.533 34.133-4.267 8.533-12.8 17.067-25.6 21.333l-76.8 38.4c-4.267 0-8.533 4.267-8.533 8.533-4.267 4.267-4.267 4.267-8.533 8.533 17.067 25.6 25.6 59.733 25.6 89.6 0 21.333-4.267 42.667-12.8 64 4.267 4.267 12.8 8.533 21.333 8.533 8.533 4.267 12.8 4.267 21.333 4.267 21.333 0 42.667-8.533 59.733-29.867 17.067-17.067 25.6-42.667 25.6-68.267 0-17.067-4.267-34.133-12.8-51.2s-17.067-25.6-29.867-34.133l110.933-51.2c8.533-4.267 12.8-12.8 12.8-21.333v-89.6z" />
<glyph unicode="&#xe901;" glyph-name="sys-mode-phone" d="M512 960c-281.6 0-512-230.4-512-512s230.4-512 512-512 512 230.4 512 512-230.4 512-512 512zM507.733 588.8c81.067 0 149.333-68.267 149.333-149.333 0-12.8-12.8-25.6-25.6-25.6s-25.6 12.8-25.6 25.6c0 55.467-42.667 98.133-98.133 98.133-12.8 0-25.6 12.8-25.6 25.6s8.533 25.6 25.6 25.6zM482.133 665.6c0 12.8 12.8 25.6 25.6 25.6 136.533 0 247.467-110.933 247.467-247.467 0-12.8-12.8-25.6-25.6-25.6s-25.6 12.8-25.6 25.6c0 110.933-89.6 200.533-200.533 200.533-12.8-4.267-21.333 8.533-21.333 21.333zM772.267 128c0-12.8-8.533-21.333-21.333-21.333-320 0-580.267 260.267-580.267 580.267 0 12.8 8.533 21.333 21.333 21.333h128c12.8 0 21.333-8.533 21.333-21.333 0-64 12.8-123.733 42.667-174.933 0-8.533 0-12.8 0-17.067s-4.267-8.533-12.8-12.8l-68.267-34.133c46.933-85.333 119.467-157.867 209.067-209.067l34.133 68.267c4.267 4.267 8.533 8.533 12.8 12.8 4.267 0 12.8 0 17.067 0 55.467-25.6 115.2-38.4 174.933-38.4 12.8 0 21.333-8.533 21.333-21.333v-132.267zM827.733 418.133c-12.8 0-25.6 12.8-25.6 25.6 0 166.4-132.267 298.667-298.667 298.667-12.8 0-25.6 12.8-25.6 25.6s12.8 25.6 25.6 25.6c192 0 345.6-157.867 345.6-345.6 4.267-21.333-8.533-29.867-21.333-29.867z" />
<glyph unicode="&#xe902;" glyph-name="sys-mode-email" d="M512 960c-281.6 0-512-230.4-512-512s230.4-512 512-512 512 230.4 512 512-230.4 512-512 512zM853.333 256c0-21.333-17.067-42.667-42.667-42.667h-597.333c-21.333 0-42.667 21.333-42.667 42.667v285.867l298.667-157.867c25.6-12.8 55.467-12.8 85.333 0l298.667 157.867v-285.867zM853.333 605.867l-324.267-170.667c-8.533-4.267-21.333-4.267-29.867 0l-328.533 170.667v12.8c0 21.333 17.067 42.667 42.667 42.667h597.333c21.333 0 42.667-17.067 42.667-42.667v-12.8z" />
<glyph unicode="&#xe903;" glyph-name="sys-mode-sms" d="M674.133 448c0-23.564-19.103-42.667-42.667-42.667s-42.667 19.103-42.667 42.667c0 23.564 19.103 42.667 42.667 42.667s42.667-19.103 42.667-42.667zM550.4 448c0-23.564-19.103-42.667-42.667-42.667s-42.667 19.103-42.667 42.667c0 23.564 19.103 42.667 42.667 42.667s42.667-19.103 42.667-42.667zM426.667 448c0-23.564-19.103-42.667-42.667-42.667s-42.667 19.103-42.667 42.667c0 23.564 19.103 42.667 42.667 42.667s42.667-19.103 42.667-42.667zM512 960c-281.6 0-512-230.4-512-512s230.4-512 512-512 512 230.4 512 512-230.4 512-512 512zM665.6 243.2v-93.867c0-12.8-8.533-21.333-17.067-29.867-12.8-4.267-25.6 0-34.133 8.533l-115.2 110.933h-110.933c-119.467 0-217.6 93.867-217.6 209.067 0 119.467 98.133 213.333 217.6 213.333h247.467c119.467 0 217.6-93.867 217.6-209.067 0-106.667-81.067-196.267-187.733-209.067z" />
<glyph unicode="&#xe904;" glyph-name="sys-mode-multi" d="M827.733 358.4c0-14.138-11.462-25.6-25.6-25.6s-25.6 11.462-25.6 25.6c0 14.138 11.462 25.6 25.6 25.6s25.6-11.462 25.6-25.6zM746.667 358.4c0-14.138-11.462-25.6-25.6-25.6s-25.6 11.462-25.6 25.6c0 14.138 11.462 25.6 25.6 25.6s25.6-11.462 25.6-25.6zM669.867 358.4c0-14.138-11.462-25.6-25.6-25.6s-25.6 11.462-25.6 25.6c0 14.138 11.462 25.6 25.6 25.6s25.6-11.462 25.6-25.6zM512 960c-281.6 0-512-230.4-512-512s230.4-512 512-512 512 230.4 512 512-230.4 512-512 512zM320 806.4c0 12.8 12.8 25.6 25.6 25.6h375.467c12.8 0 25.6-12.8 25.6-25.6v-8.533l-204.8-106.667c-4.267-4.267-12.8-4.267-21.333 0l-200.533 106.667v8.533zM320 759.467l187.733-98.133c17.067-8.533 34.133-8.533 51.2 0l187.733 98.133v-179.2c0-12.8-12.8-25.6-25.6-25.6h-375.467c-12.8 0-25.6 12.8-25.6 25.6v179.2zM652.8 46.933c0-12.8-8.533-21.333-21.333-21.333-298.667 4.267-546.133 247.467-546.133 550.4 0 12.8 8.533 21.333 21.333 21.333h123.733c12.8 0 21.333-8.533 21.333-21.333 0-59.733 12.8-115.2 38.4-166.4 4.267-4.267 4.267-8.533 0-17.067 0-4.267-4.267-8.533-8.533-12.8l-64-34.133c46.933-81.067 115.2-149.333 196.267-196.267l29.867 64c4.267 4.267 8.533 8.533 12.8 8.533s12.8 0 17.067 0c51.2-25.6 106.667-38.4 166.4-38.4 12.8 0 21.333-8.533 21.333-21.333v-115.2zM823.467 230.4v-59.733c0-8.533-4.267-12.8-12.8-17.067s-17.067 0-21.333 4.267l-72.533 68.267h-68.267c-76.8 0-136.533 59.733-136.533 132.267s59.733 132.267 136.533 132.267h153.6c72.533 0 136.533-59.733 136.533-132.267 0-64-51.2-119.467-115.2-128z" />
<glyph unicode="&#xe905;" glyph-name="sys-mode-sip" d="M806.4 648.533h-29.867v-81.067h29.867c29.867 0 42.667 12.8 42.667 42.667v0c0 21.333-12.8 38.4-42.667 38.4zM512 960c-281.6 0-512-230.4-512-512s230.4-512 512-512 512 230.4 512 512-230.4 512-512 512zM584.533 695.467h64v-256h-64v256zM430.933 537.6l-29.867 8.533c-51.2 8.533-76.8 34.133-76.8 76.8v0c0 46.933 42.667 81.067 102.4 81.067 64 0 98.133-34.133 102.4-76.8v-4.267h-59.733v4.267c-4.267 17.067-17.067 25.6-42.667 25.6s-38.4-8.533-38.4-25.6v0c0-12.8 12.8-21.333 38.4-29.867l25.6-4.267c55.467-12.8 81.067-34.133 81.067-72.533v0c0-51.2-38.4-85.333-106.667-85.333-64 0-106.667 29.867-106.667 76.8v4.267h64c0-17.067 21.333-25.6 46.933-25.6s42.667 12.8 42.667 29.867v0c-4.267 4.267-12.8 12.8-42.667 17.067zM652.8 46.933c0-12.8-8.533-21.333-21.333-21.333-298.667 4.267-546.133 247.467-546.133 550.4 0 12.8 8.533 21.333 21.333 21.333h123.733c12.8 0 21.333-8.533 21.333-21.333 0-59.733 12.8-115.2 38.4-166.4 4.267-4.267 4.267-8.533 0-17.067 0-4.267-4.267-8.533-8.533-12.8l-64-34.133c46.933-81.067 115.2-149.333 196.267-196.267l29.867 64c4.267 4.267 8.533 8.533 12.8 8.533s12.8 0 17.067 0c51.2-25.6 106.667-38.4 166.4-38.4 12.8 0 21.333-8.533 21.333-21.333v-115.2zM823.467 516.267h-46.933v-76.8h-64v256h110.933c59.733 0 93.867-34.133 93.867-89.6v0c0-55.467-38.4-89.6-93.867-89.6z" />
<glyph unicode="&#xe906;" glyph-name="sys-mode-twitter" d="M512 960c-281.6 0-512-230.4-512-512s230.4-512 512-512c281.6 0 512 230.4 512 512s-230.4 512-512 512zM768 546.133c0-4.267 0-8.533 0-17.067 0-162.133-123.733-349.867-349.867-349.867-68.267 0-136.533 21.333-187.733 55.467 8.533 0 21.333 0 29.867 0 59.733 0 110.933 21.333 153.6 51.2-55.467 0-98.133 38.4-115.2 85.333 8.533 0 17.067-4.267 21.333-4.267 12.8 0 21.333 0 34.133 4.267-59.733 12.8-98.133 64-98.133 123.733 0 0 0 0 0 0 17.067-8.533 34.133-12.8 55.467-17.067-34.133 25.6-55.467 59.733-55.467 106.667 0 21.333 4.267 42.667 17.067 64 59.733-76.8 153.6-123.733 256-128-4.267 8.533-4.267 17.067-4.267 29.867 0 68.267 55.467 123.733 123.733 123.733 34.133 0 68.267-12.8 89.6-38.4 29.867 4.267 55.467 17.067 76.8 29.867-8.533-29.867-29.867-51.2-55.467-68.267 25.6 4.267 46.933 8.533 72.533 21.333-17.067-34.133-38.4-55.467-64-72.533z" />
<glyph unicode="&#xe907;" glyph-name="sys-mode-messenger" d="M512 960c-290.133 0-512-213.333-512-494.933 0-149.333 59.733-277.333 162.133-366.933 8.533-8.533 12.8-17.067 12.8-29.867l4.267-89.6c0-29.867 29.867-46.933 55.467-34.133l102.4 46.933c8.533 4.267 17.067 4.267 25.6 0 46.933-12.8 98.133-21.333 149.333-21.333 290.133 0 512 213.333 512 494.933s-221.867 494.933-512 494.933zM819.2 576l-149.333-238.933c-25.6-38.4-76.8-46.933-110.933-21.333l-119.467 89.6c-12.8 8.533-25.6 8.533-38.4 0l-162.133-123.733c-21.333-17.067-51.2 8.533-34.133 34.133l149.333 238.933c25.6 38.4 76.8 46.933 110.933 21.333l119.467-89.6c12.8-8.533 25.6-8.533 38.4 0l162.133 123.733c21.333 17.067 46.933-8.533 34.133-34.133z" />
<glyph unicode="&#xe908;" glyph-name="sys-mode-whats-app" d="M870.4 810.667c-93.867 98.133-221.867 149.333-358.4 149.333-281.6 0-507.733-226.133-507.733-507.733 0-89.6 21.333-174.933 68.267-251.733l-72.533-264.533 268.8 72.533c72.533-42.667 157.867-64 243.2-64v0c281.6 0 507.733 226.133 507.733 507.733 0 136.533-51.2 264.533-149.333 358.4zM512 29.867c-76.8 0-149.333 21.333-213.333 59.733l-17.067 8.533-157.867-42.667 42.667 153.6-8.533 17.067c-42.667 68.267-64 145.067-64 226.133-4.267 234.667 187.733 422.4 418.133 422.4 110.933 0 217.6-42.667 298.667-123.733s123.733-187.733 123.733-298.667c0-234.667-192-422.4-422.4-422.4zM742.4 345.6c-12.8 4.267-76.8 38.4-85.333 42.667-12.8 4.267-21.333 4.267-29.867-4.267-8.533-12.8-34.133-42.667-38.4-51.2-8.533-8.533-12.8-8.533-25.6-4.267s-55.467 21.333-102.4 64c-38.4 34.133-64 76.8-72.533 89.6s0 21.333 4.267 25.6 12.8 12.8 17.067 21.333c8.533 4.267 12.8 12.8 17.067 21.333s4.267 17.067 0 21.333-29.867 68.267-42.667 93.867c-8.533 25.6-21.333 21.333-25.6 21.333-8.533 0-17.067 0-25.6 0s-21.333-4.267-34.133-17.067-42.667-42.667-42.667-106.667 46.933-123.733 51.2-132.267c4.267-8.533 89.6-136.533 217.6-192 29.867-12.8 55.467-21.333 72.533-25.6 29.867-8.533 59.733-8.533 81.067-4.267 25.6 4.267 76.8 29.867 85.333 59.733s8.533 55.467 8.533 59.733c-8.533 8.533-17.067 12.8-29.867 17.067z" />
<glyph unicode="&#xe909;" glyph-name="sys-mode-custom" d="M512 396.8c-29.867 0-51.2-25.6-51.2-51.2 0-29.867 25.6-51.2 51.2-51.2s51.2 25.6 51.2 51.2c0 25.6-21.333 51.2-51.2 51.2zM746.667 605.867c-29.867 0-51.2-25.6-51.2-51.2s25.6-51.2 51.2-51.2c29.867 0 51.2 25.6 51.2 51.2s-21.333 51.2-51.2 51.2zM328.533 554.667c0-28.277-22.923-51.2-51.2-51.2s-51.2 22.923-51.2 51.2c0 28.277 22.923 51.2 51.2 51.2s51.2-22.923 51.2-51.2zM512 960c-281.6 0-512-230.4-512-512s230.4-512 512-512 512 230.4 512 512-230.4 512-512 512zM302.933 452.267v-320c0-12.8-12.8-25.6-25.6-25.6s-25.6 12.8-25.6 25.6v320c-46.933 12.8-81.067 51.2-81.067 102.4s34.133 89.6 76.8 102.4v106.667c0 12.8 12.8 25.6 29.867 25.6s25.6-12.8 25.6-25.6v-106.667c46.933-12.8 76.8-51.2 76.8-102.4s-34.133-89.6-76.8-102.4zM537.6 243.2v-106.667c0-12.8-12.8-25.6-25.6-25.6s-25.6 12.8-25.6 25.6v106.667c-46.933 12.8-76.8 51.2-76.8 102.4 0 46.933 34.133 89.6 76.8 102.4v315.733c0 12.8 12.8 25.6 25.6 25.6s25.6-12.8 25.6-25.6v-320c46.933-12.8 76.8-51.2 76.8-102.4 4.267-46.933-29.867-89.6-76.8-98.133zM776.533 452.267v-320c0-12.8-12.8-25.6-25.6-25.6s-25.6 12.8-25.6 25.6v320c-46.933 12.8-76.8 51.2-76.8 102.4s34.133 89.6 76.8 102.4v106.667c0 12.8 12.8 25.6 25.6 25.6s25.6-12.8 25.6-25.6v-106.667c42.667-12.8 76.8-55.467 76.8-102.4s-34.133-89.6-76.8-102.4z" />
<glyph unicode="&#xe90a;" glyph-name="sys-mode-email-sms" d="M635.733 285.867c0-18.851-15.282-34.133-34.133-34.133s-34.133 15.282-34.133 34.133c0 18.851 15.282 34.133 34.133 34.133s34.133-15.282 34.133-34.133zM541.867 285.867c0-18.851-15.282-34.133-34.133-34.133s-34.133 15.282-34.133 34.133c0 18.851 15.282 34.133 34.133 34.133s34.133-15.282 34.133-34.133zM452.267 285.867c0-18.851-15.282-34.133-34.133-34.133s-34.133 15.282-34.133 34.133c0 18.851 15.282 34.133 34.133 34.133s34.133-15.282 34.133-34.133zM512 960c-281.6 0-512-230.4-512-512s230.4-512 512-512 512 230.4 512 512-230.4 512-512 512zM298.667 763.733c0 12.8 12.8 25.6 25.6 25.6h375.467c12.8 0 25.6-12.8 25.6-25.6v-8.533l-204.8-106.667c-4.267-4.267-12.8-4.267-21.333 0l-200.533 106.667v8.533zM298.667 716.8l187.733-98.133c17.067-8.533 34.133-8.533 51.2 0l187.733 98.133v-179.2c0-12.8-12.8-25.6-25.6-25.6h-375.467c-12.8 0-25.6 12.8-25.6 25.6v179.2zM627.2 132.267v-68.267c0-8.533-4.267-17.067-12.8-21.333s-17.067 0-25.6 4.267l-85.333 85.333h-85.333c-89.6 0-162.133 72.533-162.133 157.867s72.533 157.867 162.133 157.867h187.733c89.6 0 162.133-72.533 162.133-157.867 0-81.067-59.733-145.067-140.8-157.867z" />
<glyph unicode="&#xe90b;" glyph-name="sys-mode-phone-email" d="M512 960c-281.6 0-512-230.4-512-512s230.4-512 512-512 512 230.4 512 512-230.4 512-512 512zM652.8 46.933c0-12.8-8.533-21.333-21.333-21.333-298.667 4.267-546.133 247.467-546.133 550.4 0 12.8 8.533 21.333 21.333 21.333h123.733c12.8 0 21.333-8.533 21.333-21.333 0-59.733 12.8-115.2 38.4-166.4 4.267-4.267 4.267-8.533 0-17.067 0-4.267-4.267-8.533-8.533-12.8l-64-34.133c46.933-81.067 115.2-149.333 196.267-196.267l29.867 64c4.267 4.267 8.533 8.533 12.8 8.533s12.8 0 17.067 0c51.2-25.6 106.667-38.4 166.4-38.4 12.8 0 21.333-8.533 21.333-21.333v-115.2zM870.4 430.933c0-17.067-12.8-29.867-29.867-29.867h-413.867c-17.067 0-29.867 12.8-29.867 29.867v192l204.8-106.667c17.067-8.533 38.4-8.533 55.467 0l204.8 106.667v-192zM870.4 665.6l-226.133-115.2c-8.533-4.267-12.8-4.267-21.333 0l-221.867 115.2v8.533c0 17.067 12.8 29.867 29.867 29.867h413.867c17.067 0 29.867-12.8 29.867-29.867v-8.533z" />
<glyph unicode="&#xe90c;" glyph-name="sys-mode-phone-sms" d="M537.6 541.867c0-18.851-15.282-34.133-34.133-34.133s-34.133 15.282-34.133 34.133c0 18.851 15.282 34.133 34.133 34.133s34.133-15.282 34.133-34.133zM627.2 541.867c0-18.851-15.282-34.133-34.133-34.133s-34.133 15.282-34.133 34.133c0 18.851 15.282 34.133 34.133 34.133s34.133-15.282 34.133-34.133zM721.067 541.867c0-18.851-15.282-34.133-34.133-34.133s-34.133 15.282-34.133 34.133c0 18.851 15.282 34.133 34.133 34.133s34.133-15.282 34.133-34.133zM512 960c-281.6 0-512-230.4-512-512s230.4-512 512-512 512 230.4 512 512-230.4 512-512 512zM652.8 46.933c0-12.8-8.533-21.333-21.333-21.333-298.667 4.267-546.133 247.467-546.133 550.4 0 12.8 8.533 21.333 21.333 21.333h123.733c12.8 0 21.333-8.533 21.333-21.333 0-59.733 12.8-115.2 38.4-166.4 4.267-4.267 4.267-8.533 0-17.067 0-4.267-4.267-8.533-8.533-12.8l-64-34.133c46.933-81.067 115.2-149.333 196.267-196.267l29.867 64c4.267 4.267 8.533 8.533 12.8 8.533s12.8 0 17.067 0c51.2-25.6 106.667-38.4 166.4-38.4 12.8 0 21.333-8.533 21.333-21.333v-115.2zM712.533 388.267v-68.267c0-8.533-4.267-17.067-12.8-21.333s-17.067 0-25.6 4.267l-85.333 85.333h-85.333c-89.6 0-162.133 72.533-162.133 157.867s72.533 157.867 162.133 157.867h187.733c89.6 0 162.133-72.533 162.133-157.867 0-81.067-59.733-145.067-140.8-157.867z" />
<glyph unicode="&#xe90d;" glyph-name="sys-time-zone" d="M814.933 610.133c8.533-38.4 25.6-119.467 21.333-123.733 21.333-17.067 42.667-42.667 59.733-68.267 64-115.2-4.267-256-76.8-302.933-59.733-38.4-162.133-17.067-162.133-17.067l-42.667-29.867c-68.267-34.133-149.333-42.667-226.133-25.6-217.6 59.733-388.267 354.133-243.2 622.933 51.2 89.6 132.267 157.867 230.4 187.733l72.533 12.8c192 0 311.467-110.933 366.933-256zM375.467 686.933h187.733v4.267c-4.267 8.533-8.533 21.333-8.533 29.867 0 12.8-4.267 25.6-4.267 38.4-8.533 8.533-12.8 17.067-21.333 25.6v0c-8.533 8.533-17.067 17.067-21.333 29.867l-64 4.267c-38.4-38.4-59.733-85.333-68.267-132.267zM358.4 797.867v0 0 0zM358.4 797.867c-12.8-8.533-25.6-17.067-38.4-25.6-38.4-25.6-76.8-46.933-102.4-85.333h106.667c4.267 8.533 8.533 21.333 17.067 38.4v0 0c12.8 29.867 25.6 64 17.067 72.533zM567.467 797.867v0 0 0zM567.467 797.867l42.667-110.933h106.667l-12.8 12.8c-17.067 42.667-85.333 85.333-136.533 98.133zM183.467 635.733c-21.333-51.2-38.4-106.667-42.667-162.133l157.867 8.533c4.267 51.2 12.8 102.4 17.067 153.6h-132.267zM358.4 635.733c-8.533-51.2-17.067-106.667-17.067-157.867l256 4.267c0 12.8 0 21.333 0 34.133s0 21.333 0 34.133c-4.267 12.8-4.267 29.867-8.533 42.667v0c-4.267 12.8-8.533 29.867-8.533 42.667h-221.867zM622.933 635.733c4.267-42.667 8.533-81.067 12.8-123.733 46.933 21.333 98.133 17.067 153.6 8.533-12.8 38.4-25.6 76.8-38.4 115.2h-128zM704 477.867v0 0 0zM704 477.867c-64-12.8-110.933-59.733-128-119.467-34.133-115.2 59.733-234.667 162.133-213.333 89.6 17.067 145.067 102.4 136.533 192-12.8 81.067-85.333 145.067-170.667 140.8zM140.8 426.667v-4.267c8.533-55.467 17.067-123.733 46.933-157.867h128v4.267c-4.267 51.2-12.8 102.4-17.067 157.867h-157.867zM358.4 264.533h166.4v12.8c-17.067 55.467 8.533 115.2 25.6 149.333h-209.067l17.067-162.133zM733.867 315.733l-4.267 85.333-12.8 8.533-17.067 4.267c-4.267-4.267-4.267-8.533-8.533-12.8 0-21.333 0-42.667 0-64v0 0 0 0c0-17.067 0-34.133 0-55.467 0 0 4.267 0 4.267-4.267v0c4.267-4.267 4.267-8.533 8.533-8.533 4.267-4.267 8.533-4.267 12.8-4.267h98.133c4.267 4.267 4.267 4.267 8.533 4.267 0 4.267 4.267 4.267 4.267 4.267s0 0 0 0 0 4.267 0 4.267c4.267 0 4.267 4.267 4.267 8.533 0 8.533 0 17.067-4.267 25.6l-93.867 4.267zM366.933 106.667l-42.667 110.933h-106.667c34.133-51.2 89.6-93.867 149.333-110.933zM375.467 217.6c8.533-51.2 34.133-93.867 68.267-132.267l64 4.267c4.267 8.533 12.8 21.333 17.067 29.867 21.333 29.867 42.667 68.267 12.8 98.133h-162.133zM567.467 106.667l42.667 17.067c0 0 0 4.267 0 4.267-4.267 0-4.267 4.267-4.267 4.267l-21.333 12.8c-8.533-12.8-12.8-25.6-17.067-38.4z" />
<glyph unicode="&#xe90e;" glyph-name="sys-campaign-category" d="M853.333 699.733c0-12.8-4.267-21.333 0-25.6 0 0 4.267-4.267 4.267-4.267 4.267 0 4.267 0 4.267 4.267 8.533 4.267 17.067 46.933 12.8 68.267-4.267 46.933-21.333 68.267-42.667 93.867-4.267 8.533-12.8 12.8-17.067 21.333h-8.533l-4.267-4.267c0-4.267 0-8.533 0-12.8 29.867-12.8 51.2-64 55.467-106.667 0-8.533 0-21.333-4.267-34.133zM925.867 256c4.267 0 8.533 0 12.8 4.267 17.067 12.8 29.867 89.6 21.333 123.733-17.067 89.6-46.933 123.733-85.333 170.667v0 0 0c-8.533 12.8-21.333 25.6-29.867 38.4h-17.067l-8.533-4.267c0-8.533-4.267-17.067 0-21.333 55.467-25.6 89.6-115.2 102.4-192 4.267-17.067 0-42.667-4.267-64s-8.533-38.4-4.267-51.2c4.267 0 8.533-4.267 12.8-4.267zM832 695.467h-8.533v4.267c0 4.267 0 12.8 0 21.333v0 0c0 12.8 4.267 21.333 0 29.867-4.267 21.333-17.067 34.133-25.6 46.933-4.267 4.267-4.267 8.533-8.533 12.8 0 4.267 0 8.533 4.267 8.533h4.267c25.6-21.333 59.733-76.8 34.133-123.733zM810.667 712.533c4.267 4.267 4.267 8.533 4.267 12.8v0c4.267 25.6-8.533 42.667-21.333 55.467 0 4.267-4.267 4.267-4.267 4.267h-4.267c0 0 0-4.267 0-4.267 12.8-12.8 21.333-25.6 21.333-42.667l4.267-25.6zM802.133 652.8c-8.533-4.267-21.333 0-29.867 4.267-4.267 4.267-8.533 4.267-8.533 4.267-25.6 8.533-55.467 8.533-81.067 4.267l-29.867-8.533-25.6 106.667c29.867 8.533 59.733 21.333 85.333 42.667 4.267 4.267 8.533 8.533 12.8 17.067s12.8 17.067 17.067 21.333h4.267l12.8-4.267 46.933-179.2c0-4.267-4.267-8.533-4.267-8.533zM512 695.467c-12.8-68.267 93.867-59.733 132.267-42.667v0 0c-8.533 34.133-17.067 68.267-25.6 106.667h-4.267l-25.6-8.533c-34.133-8.533-72.533-21.333-76.8-55.467zM482.133 529.067v0c4.267 12.8 4.267 29.867 4.267 42.667-8.533 51.2-29.867 110.933-68.267 128 0 4.267 0 8.533 0 17.067l4.267 4.267h12.8c8.533-8.533 12.8-17.067 21.333-25.6 25.6-29.867 46.933-55.467 55.467-115.2 4.267-21.333-4.267-72.533-17.067-81.067 0-4.267-4.267-4.267-8.533-4.267s-4.267 0-8.533 4.267c0 4.267 0 17.067 4.267 29.867zM443.733 520.533h8.533c29.867 51.2-8.533 123.733-42.667 145.067h-4.267c-4.267 0-4.267-4.267-4.267-8.533 4.267-4.267 8.533-8.533 12.8-12.8 12.8-17.067 25.6-29.867 29.867-55.467 4.267-8.533 0-25.6 0-38.4v0c-4.267-8.533-4.267-21.333 0-29.867v0zM430.933 558.933c0-4.267-4.267-12.8-8.533-17.067h-4.267c0 8.533 0 21.333 0 29.867 0 21.333-8.533 38.4-25.6 55.467 0 4.267 0 4.267 0 8.533h4.267c0-4.267 4.267-4.267 4.267-8.533v0 0 0c21.333-17.067 38.4-38.4 29.867-68.267zM379.733 477.867c12.8-4.267 25.6-12.8 34.133-8.533v0c4.267 0 4.267 4.267 8.533 8.533-21.333 72.533-38.4 140.8-59.733 213.333l-12.8 4.267h-4.267c-8.533-4.267-17.067-12.8-21.333-25.6-8.533-4.267-12.8-12.8-21.333-17.067-29.867-25.6-68.267-42.667-106.667-51.2l34.133-128 34.133 8.533c34.133 8.533 68.267 8.533 102.4 0 4.267 0 8.533-4.267 12.8-4.267zM221.867 473.6c-46.933-25.6-179.2-38.4-162.133 46.933 8.533 42.667 51.2 55.467 89.6 68.267v0l34.133 8.533h4.267l34.133-123.733zM204.8 426.667l-17.067 29.867c-12.8-8.533-29.867-12.8-46.933-8.533 0-12.8 21.333-89.6 29.867-93.867 17.067-12.8 72.533 8.533 81.067 21.333 0 17.067-12.8 25.6-25.6 34.133-8.533 4.267-17.067 8.533-21.333 17.067zM422.4 405.333l51.2 12.8h8.533c17.067-64 34.133-128 51.2-187.733h-4.267c-68.267-34.133-268.8-51.2-243.2 72.533 12.8 64 76.8 81.067 136.533 102.4v0 0zM503.467 157.867l-21.333 46.933c-21.333-12.8-46.933-17.067-72.533-12.8 0-21.333 29.867-132.267 42.667-140.8 21.333-17.067 110.933 12.8 119.467 34.133-4.267 25.6-21.333 38.4-38.4 51.2-12.8 4.267-21.333 12.8-29.867 21.333zM601.6 554.667c-8.533 25.6-17.067 51.2-21.333 76.8 12.8 0 29.867 0 38.4 8.533 4.267-8.533 8.533-17.067 12.8-25.6 4.267-4.267 8.533-8.533 17.067-12.8 8.533-8.533 17.067-12.8 21.333-29.867-8.533-8.533-55.467-25.6-68.267-17.067v0zM652.8 499.2c-46.933-34.133-93.867-55.467-157.867-76.8v0c17.067-64 34.133-128 51.2-187.733l51.2 17.067c51.2 8.533 102.4 8.533 149.333-4.267 4.267 0 12.8-4.267 17.067-8.533 17.067-8.533 42.667-17.067 55.467-8.533 4.267 4.267 8.533 4.267 8.533 12.8l-85.333 320-21.333 8.533-8.533-4.267c-12.8-4.267-21.333-21.333-34.133-34.133-8.533-17.067-17.067-29.867-25.6-34.133zM827.733 379.733c-4.267 34.133-17.067 51.2-34.133 72.533 0 4.267-4.267 4.267-4.267 8.533s0 8.533 4.267 12.8h8.533c4.267-4.267 4.267-8.533 8.533-12.8v0c21.333-25.6 46.933-55.467 34.133-102.4 0-8.533-4.267-17.067-8.533-25.6h-8.533v46.933zM814.933 486.4c21.333-21.333 38.4-42.667 46.933-85.333v0c4.267-17.067 0-38.4 0-55.467s-4.267-34.133 0-42.667l4.267-4.267 12.8 4.267c46.933 76.8-17.067 183.467-59.733 217.6h-8.533c-4.267-4.267-8.533-8.533-8.533-17.067 0-4.267 4.267-8.533 12.8-17.067z" />
<glyph unicode="&#xe90f;" glyph-name="sys-compliance" d="M384 409.6c-4.267 0-8.533-4.267-8.533-8.533v-46.933c0-4.267 4.267-8.533 8.533-8.533h200.533c-8.533-17.067-12.8-38.4-12.8-59.733 0-8.533 0-17.067 0-25.6h-187.733c-4.267 0-8.533-4.267-8.533-8.533v-46.933c0-4.267 4.267-8.533 8.533-8.533h213.333c42.667-68.267 128-98.133 204.8-72.533v-81.067h-657.067v814.933h657.067v-409.6c-64 21.333-132.267 8.533-179.2-38.4h-238.933zM861.867 217.6c-12.8-21.333-29.867-38.4-51.2-51.2-42.667-25.6-93.867-25.6-136.533 0-21.333 12.8-38.4 29.867-51.2 51.2-25.6 42.667-25.6 93.867 0 136.533 12.8 21.333 29.867 38.4 51.2 51.2 42.667 25.6 93.867 25.6 136.533 0 21.333-12.8 38.4-29.867 51.2-51.2 25.6-42.667 25.6-93.867 0-136.533zM832 324.267l-17.067 17.067c0 4.267-4.267 4.267-8.533 4.267s-4.267 0-8.533-4.267l-72.533-76.8-38.4 38.4c0 4.267-4.267 4.267-8.533 4.267s-4.267 0-8.533-4.267l-17.067-17.067c-4.267-4.267-4.267-4.267-4.267-8.533s0-4.267 4.267-8.533l64-64c0-4.267 4.267-4.267 8.533-4.267s4.267 0 8.533 4.267l98.133 98.133c4.267 0 4.267 4.267 4.267 8.533s-4.267 8.533-4.267 12.8zM315.733 708.267c0 4.267-4.267 8.533-8.533 8.533h-46.933c-4.267-4.267-8.533-4.267-8.533-8.533v-46.933c0-4.267 4.267-8.533 8.533-8.533h46.933c4.267 0 8.533 4.267 8.533 8.533v46.933zM307.2 563.2h-46.933c-4.267 0-8.533-4.267-8.533-8.533v-46.933c0-4.267 4.267-8.533 8.533-8.533h46.933c4.267 0 8.533 4.267 8.533 8.533v46.933c0 4.267-4.267 8.533-8.533 8.533zM315.733 401.067c0 4.267-4.267 8.533-8.533 8.533h-46.933c-4.267 0-8.533-4.267-8.533-8.533v-46.933c0-4.267 4.267-8.533 8.533-8.533h46.933c4.267 0 8.533 4.267 8.533 8.533v46.933zM307.2 260.267h-46.933c-4.267 0-8.533-4.267-8.533-8.533v-46.933c0-4.267 4.267-8.533 8.533-8.533h46.933c4.267 0 8.533 4.267 8.533 8.533v46.933c0 4.267-4.267 8.533-8.533 8.533zM699.733 708.267c0 4.267-4.267 8.533-8.533 8.533h-307.2c-4.267 0-8.533-4.267-8.533-8.533v-46.933c0-4.267 4.267-8.533 8.533-8.533h307.2c4.267 0 8.533 4.267 8.533 8.533v46.933zM691.2 563.2h-307.2c-4.267 0-8.533-4.267-8.533-8.533v-46.933c0-4.267 4.267-8.533 8.533-8.533h307.2c4.267 0 8.533 4.267 8.533 8.533v46.933c0 4.267-4.267 8.533-8.533 8.533z" />
<glyph unicode="&#xe910;" glyph-name="sys-glodal-upload" d="M947.2 256c0 68.267-38.4 136.533-98.133 174.933 4.267 59.733-4.267 115.2-25.6 166.4-59.733 132.267-183.467 247.467-375.467 243.2l-42.667-4.267c-25.6-4.267-51.2-12.8-76.8-21.333-115.2-46.933-187.733-123.733-234.667-243.2-8.533-21.333-12.8-46.933-17.067-68.267-8.533-55.467-4.267-110.933 12.8-162.133 29.867-110.933 106.667-204.8 213.333-251.733 25.6-8.533 51.2-17.067 76.8-25.6 8.533-4.267 17.067-4.267 25.6-4.267v0 0c4.267-4.267 12.8-4.267 17.067-4.267 17.067-4.267 34.133-4.267 51.2-4.267l34.133 4.267c25.6 0 51.2 4.267 72.533 12.8 17.067 4.267 29.867 8.533 46.933 17.067 25.6-17.067 51.2-29.867 81.067-34.133h8.533c0 0 4.267 0 4.267 0h4.267c0 0 4.267 0 4.267 0v0 0c0 0 0 0 0 0 4.267 0 4.267 0 8.533 0v0c4.267 0 4.267 0 8.533 0h4.267c110.933 4.267 196.267 93.867 196.267 204.8zM298.667 704c8.533-4.267 17.067-8.533 25.6-17.067 4.267-4.267 4.267-8.533 8.533-8.533 0-4.267-4.267-12.8-4.267-17.067v0c-12.8 8.533-25.6 25.6-29.867 42.667zM302.933 396.8c17.067-12.8 29.867-21.333 46.933-34.133 8.533-4.267 25.6-21.333 21.333-34.133s-8.533-21.333-17.067-29.867c-17.067-17.067-29.867-38.4-42.667-59.733-4.267-8.533-4.267-21.333-8.533-38.4s-4.267-38.4-12.8-46.933c-4.267 0-8.533 12.8-8.533 17.067s0 4.267 0 4.267l-25.6 76.8c-4.267 12.8-8.533 25.6-17.067 38.4-4.267 4.267-4.267 8.533-8.533 8.533-4.267 4.267-12.8 8.533-17.067 17.067 0 8.533 0 21.333 0 29.867s0 17.067 0 21.333c-4.267 17.067-4.267 34.133-12.8 46.933l-12.8 8.533c-4.267 0-4.267 4.267-8.533 4.267v0c-8.533 4.267-12.8 8.533-21.333 12.8l-12.8 8.533c-17.067 17.067-29.867 34.133-38.4 55.467v0c-4.267-4.267-4.267-8.533-8.533-12.8l4.267 42.667c4.267 21.333 12.8 42.667 21.333 59.733 8.533 21.333 21.333 42.667 34.133 59.733l17.067 25.6 38.4-8.533c21.333-4.267 38.4 0 55.467 12.8l17.067-8.533c-12.8-4.267-25.6-12.8-34.133-21.333-4.267-4.267-4.267-8.533-4.267-12.8 4.267-8.533 21.333-4.267 25.6 0l25.6 4.267c12.8 0 25.6-8.533 29.867-21.333 0-4.267 0-4.267 0-8.533s-4.267-4.267-8.533-4.267c-17.067-4.267-29.867-8.533-42.667-17.067-8.533-4.267-12.8-21.333-17.067-34.133v0c0-12.8-4.267-25.6-8.533-34.133-4.267-4.267-8.533-4.267-17.067-4.267-4.267 0-4.267 0-8.533 0l-72.533-8.533c0 0-4.267-4.267-4.267-4.267-4.267-8.533-12.8-17.067-8.533-29.867 4.267-4.267 8.533-4.267 12.8-4.267s8.533-4.267 12.8-4.267c0-8.533 4.267-12.8 8.533-21.333s8.533-17.067 17.067-21.333c8.533 0 17.067-4.267 25.6-4.267h38.4c12.8 0 21.333-4.267 29.867-12.8l17.067-12.8zM482.133 725.333c0-8.533-4.267-17.067-8.533-29.867l-12.8-8.533c-4.267-4.267-8.533-8.533-12.8-12.8-8.533-8.533-21.333-17.067-34.133-21.333-8.533 0-21.333-4.267-29.867 0 0 8.533 0 12.8 0 17.067 0 12.8 0 21.333 0 29.867l-8.533 21.333 55.467 8.533h29.867c8.533 0 12.8 0 21.333-4.267v0zM494.933 614.4c4.267 4.267 8.533 4.267 12.8 8.533 4.267-4.267 4.267-8.533 4.267-12.8v0c-8.533-4.267-12.8 0-17.067 4.267v0zM520.533 635.733v0c4.267-4.267 12.8-25.6 4.267-29.867 0 0-4.267 0-4.267 0-4.267 4.267 0 21.333 0 29.867v0zM733.867 682.667c12.8-12.8 25.6-29.867 34.133-46.933 38.4-55.467 59.733-123.733 59.733-192v0l-8.533 12.8c-17.067 21.333-38.4 34.133-64 38.4-8.533 4.267-17.067 4.267-25.6 4.267 0-4.267 4.267-4.267 4.267-8.533v0c8.533-8.533 12.8-17.067 8.533-29.867-68.267 0-132.267-38.4-170.667-98.133-4.267 12.8-17.067 25.6-25.6 34.133h-12.8c-12.8 0-25.6 0-38.4 4.267-17.067 12.8-29.867 29.867-34.133 51.2 0 12.8 4.267 29.867 8.533 42.667 8.533 12.8 17.067 25.6 29.867 34.133 17.067 12.8 72.533 0 102.4-4.267 4.267 0 8.533-4.267 12.8-4.267 17.067-4.267 38.4-4.267 42.667 12.8-8.533 8.533-12.8 12.8-21.333 21.333l4.267 4.267c4.267 4.267 4.267 8.533 8.533 8.533 8.533 0 12.8 0 21.333 4.267 0 0 0 0 0 4.267-8.533 12.8-38.4 4.267-46.933-4.267 0-4.267 0-8.533 0-17.067-8.533-8.533-21.333 0-29.867 8.533-4.267 4.267-8.533 8.533-8.533 8.533 0-4.267-4.267-8.533 0-8.533l-21.333 8.533c0 0 0-4.267 0-4.267-4.267 0-4.267 4.267-8.533 4.267-12.8-4.267-25.6-8.533-38.4-17.067-4.267-4.267-8.533-4.267-12.8-4.267-4.267 4.267 8.533 21.333 8.533 25.6 8.533 17.067 25.6 29.867 42.667 38.4l17.067 4.267c0 4.267 0 4.267 0 8.533v0c0 0 0-4.267 0-4.267 8.533 0 12.8 4.267 17.067 4.267 8.533 0 12.8 4.267 21.333 4.267 0 8.533 0 17.067-4.267 21.333s-17.067-8.533-25.6-17.067c-4.267 0-4.267-4.267-4.267-4.267-17.067-4.267-12.8 21.333-8.533 29.867 8.533 8.533 17.067 17.067 29.867 21.333h12.8c25.6 0 34.133-4.267 46.933-17.067l76.8 17.067zM742.4 435.2v0c102.4 0 183.467-81.067 183.467-179.2 0-76.8-46.933-140.8-115.2-170.667s-149.333-12.8-200.533 38.4c-51.2 51.2-68.267 132.267-38.4 200.533s98.133 110.933 170.667 110.933zM704 243.2v-106.667h81.067v106.667h68.267l-106.667 128-106.667-128h64z" />
<glyph unicode="&#xe911;" glyph-name="sys-glodal-upload-profile" d="M712.533 780.8c12.8 0 29.867 0 46.933 0 64 0 153.6 4.267 179.2-12.8 29.867-25.6 25.6-200.533 21.333-307.2 0-25.6 0-46.933 0-59.733s0-34.133 0-55.467v0 0 0 0 0 0c4.267-72.533 8.533-183.467-8.533-209.067-21.333-29.867-93.867-29.867-153.6-25.6-17.067 0-29.867 0-42.667 0h-516.267c-12.8 0-25.6 0-38.4 0-55.467 0-119.467-4.267-140.8 29.867-12.8 25.6-12.8 72.533-8.533 115.2 0 12.8 0 25.6 0 38.4v315.733c0 12.8 0 25.6 0 38.4 0 38.4-4.267 76.8 4.267 102.4 8.533 12.8 21.333 17.067 34.133 25.6v0 0c4.267 0 8.533 4.267 12.8 4.267h610.133zM887.467 627.2v51.2h-302.933v-51.2h302.933zM307.2 644.267c-42.667-17.067-72.533-34.133-85.333-81.067-21.333-72.533 34.133-162.133 110.933-145.067 115.2 21.333 110.933 226.133-25.6 226.133v0zM584.533 524.8h302.933v51.2h-302.933v-51.2zM584.533 473.6v-51.2h302.933v51.2h-302.933zM260.267 392.533v0 0 0zM260.267 392.533c-8.533-8.533-25.6-17.067-46.933-25.6-38.4-17.067-81.067-38.4-85.333-59.733s0-42.667 12.8-59.733c12.8-8.533 42.667-8.533 68.267-8.533v0c8.533 0 12.8 0 21.333 0 17.067 0 38.4 0 59.733 0 76.8-4.267 183.467-8.533 213.333 17.067 4.267 17.067 12.8 51.2 0 64l-128 72.533-29.867-12.8c-29.867-4.267-59.733 0-85.333 12.8zM584.533 371.2v-51.2h302.933v51.2h-302.933zM584.533 217.6h302.933v51.2h-302.933c0-17.067 0-34.133 0-51.2z" />
<glyph unicode="&#xe912;" glyph-name="sys-glodal-upload-config" d="M332.8 247.467h-149.333v-55.467h149.333v55.467zM486.4 302.933h-110.933c-17.067 0-25.6-12.8-25.6-25.6v-110.933c0-17.067 12.8-25.6 25.6-25.6h110.933c17.067 0 25.6 12.8 25.6 25.6v110.933c0 12.8-12.8 25.6-25.6 25.6zM554.667 465.067h-371.2v-55.467h371.2v55.467zM277.333 686.933h-93.867v-55.467h93.867v55.467zM840.533 247.467h-315.733v-55.467h315.733v55.467zM430.933 742.4h-110.933c-17.067 0-25.6-12.8-25.6-25.6v-110.933c0-17.067 8.533-29.867 25.6-29.867h110.933c17.067 0 25.6 12.8 25.6 25.6v110.933c0 17.067-12.8 29.867-25.6 29.867zM704 520.533h-110.933c-17.067 0-25.6-12.8-25.6-25.6v-110.933c0-17.067 12.8-25.6 25.6-25.6h110.933c17.067 0 25.6 12.8 25.6 25.6v110.933c0 12.8-12.8 25.6-25.6 25.6zM840.533 465.067h-93.867v-55.467h93.867v55.467zM840.533 686.933h-371.2v-55.467h371.2v55.467z" />
<glyph unicode="&#xe913;" glyph-name="sys-business-outcome" d="M439.467 704h-76.8v4.267l21.333 17.067 128 162.133 8.533-4.267 140.8-174.933v-4.267l-72.533-4.267v-179.2l-76.8-68.267-51.2 51.2-25.6 21.333 4.267 179.2zM593.067 21.333h-149.333c-4.267 247.467 106.667 456.533 294.4 512l-25.6 72.533 221.867-72.533-106.667-200.533-8.533 4.267-21.333 55.467c-145.067-29.867-196.267-200.533-204.8-371.2zM311.467 601.6h-12.8l-209.067-64 106.667-200.533 8.533-4.267 25.6 59.733c68.267-17.067 149.333-98.133 166.4-166.4h4.267c21.333 29.867 34.133 72.533 51.2 110.933 8.533 21.333 17.067 42.667 25.6 59.733-46.933 51.2-115.2 115.2-187.733 136.533l21.333 68.267z" />
<glyph unicode="&#xe914;" glyph-name="sys-area-zip" d="M567.467 64c17.067 21.333 209.067 366.933 221.867 426.667 72.533 238.933-81.067 405.333-273.067 413.867-55.467 4.267-110.933-8.533-162.133-38.4-102.4-59.733-196.267-213.333-128-375.467 21.333-51.2 136.533-290.133 200.533-379.733 4.267-8.533 12.8-25.6 21.333-38.4 8.533-17.067 17.067-29.867 25.6-42.667-4.267 4.267 25.6-64 68.267 4.267 4.267 4.267 12.8 17.067 25.6 29.867zM349.867 665.6c25.6 59.733 81.067 98.133 145.067 98.133v0c85.333 0 157.867-72.533 157.867-157.867 0-64-38.4-119.467-98.133-145.067s-128-8.533-170.667 34.133c-46.933 46.933-59.733 115.2-34.133 170.667z" />
<glyph unicode="&#xe915;" glyph-name="sys-state-law" d="M810.667 768h12.8c0 8.533 0 12.8 0 17.067s0 8.533 0 17.067c-42.667 0-89.6 0-136.533 0s-93.867 0-136.533 0c0 8.533 0 12.8 0 21.333s0 17.067 0 21.333h-98.133c0-8.533 0-12.8-4.267-17.067 0-8.533 0-17.067 0-21.333h-251.733c0-8.533 0-12.8 0-17.067s0-8.533 0-17.067h17.067c-51.2-110.933-102.4-221.867-153.6-332.8-4.267-93.867 98.133-149.333 187.733-145.067 68.267 17.067 119.467 46.933 136.533 115.2 0 8.533 4.267 21.333 4.267 29.867-17.067 38.4-149.333 324.267-149.333 324.267h213.333v-614.4c-4.267 0-8.533-4.267-12.8-4.267-46.933-12.8-123.733-34.133-145.067-93.867h413.867c-34.133 89.6-153.6 102.4-153.6 102.4v166.4c0 72.533 0 145.067 0 217.6s0 145.067 0 217.6c34.133 0 76.8 0 115.2 0s81.067 0 115.2 0c-25.6-55.467-51.2-115.2-76.8-170.667-25.6-51.2-46.933-102.4-72.533-153.6 12.8-136.533 145.067-140.8 183.467-140.8 72.533 17.067 140.8 64 140.8 145.067l-149.333 332.8zM366.933 435.2h-281.6l140.8 311.467c46.933-102.4 145.067-311.467 140.8-311.467zM657.067 435.2l136.533 311.467c46.933-102.4 140.8-311.467 140.8-311.467h-277.333z" />
<glyph unicode="&#xe916;" glyph-name="pop-up-columns" d="M343.467 32h-194.133c-40.96 0-74.667 33.707-74.667 74.667v682.667c0 40.96 33.707 74.667 74.667 74.667h194.133v-832zM149.333 800c-5.973 0-10.667-4.693-10.667-10.667v-682.667c0-5.973 4.693-10.667 10.667-10.667h130.133v704h-130.133zM548.267 32h-268.8v832h268.8v-832zM343.467 96h140.8v704h-140.8v-704zM788.907 32h-185.173v832h185.173c46.080 0 83.627-37.12 83.627-83.2v-102.4h-64v102.4c0 10.667-8.533 19.2-19.627 19.2h-121.173v-704h121.173c11.093 0 19.627 8.533 19.627 19.2v102.4h64v-102.4c0-46.080-37.547-83.2-83.627-83.2zM810.667 586.667h64v-256h-64v256zM714.667 490.667h256v-64h-256v64z" />
<glyph unicode="&#xe917;" glyph-name="sys-holiday" d="M469.333 827.733c140.8-12.8 230.4-72.533 285.867-153.6 21.333-25.6 34.133-59.733 38.4-89.6 0-29.867-21.333-25.6-25.6-25.6 0 0 0 0 0 0-29.867 12.8-123.733 42.667-183.467-12.8-4.267 0-12.8 0-17.067 0-29.867 17.067-59.733 25.6-93.867 29.867v-371.2h-76.8v371.2c-8.533 0-12.8-4.267-17.067-4.267-8.533 0-17.067-4.267-29.867-8.533-17.067-4.267-25.6-8.533-34.133-17.067v0c-12.8-4.267-21.333-8.533-29.867-12.8-34.133 25.6-81.067 38.4-128 25.6-17.067 0-38.4-8.533-55.467-17.067-4.267 0-8.533 0-17.067 0l-12.8 8.533c25.6 187.733 183.467 264.533 324.267 277.333 0 8.533 0 21.333 0 29.867 4.267 17.067 21.333 29.867 34.133 29.867 17.067 0 29.867-12.8 34.133-29.867 4.267-8.533 4.267-17.067 4.267-29.867zM887.467 379.733c34.133 0 55.467-12.8 59.733-46.933 0-4.267-4.267-12.8-8.533-17.067l-192-230.4h-81.067l4.267-4.267c8.533-8.533 17.067-21.333 21.333-38.4 0 0 0-4.267 0-4.267-12.8-25.6-21.333-21.333-34.133-17.067-21.333 21.333-42.667 42.667-59.733 68.267l-213.333-4.267c0 0-4.267 0-8.533-4.267-12.8-25.6-29.867-42.667-51.2-64-8.533-8.533-17.067-4.267-25.6 4.267s-12.8 17.067-8.533 25.6l25.6 34.133c0 0 0 0 4.267 0 0 0 4.267 0 4.267 0-8.533 0-21.333 0-29.867 0v0c-51.2-4.267-115.2-8.533-119.467 46.933 0 12.8 8.533 25.6 21.333 34.133 4.267 0 8.533 4.267 12.8 4.267 0 0 277.333 0 324.267 0 21.333 29.867 64 85.333 64 85.333h187.733c-4.267 0 59.733 93.867 102.4 128zM588.8 166.4c0 0 17.067 25.6 25.6 38.4h123.733l-29.867-38.4h-119.467z" />
<glyph unicode="&#xe918;" glyph-name="sys-url" d="M452.267 849.067c-119.467 0-243.2 0-354.133 0-12.8-4.267-21.333-12.8-29.867-21.333 0-4.267 0-8.533 0-12.8s4.267-12.8 0-21.333c-4.267-68.267-4.267-490.667-4.267-601.6 0-8.533 0-17.067 0-25.6 0-38.4-4.267-76.8 17.067-93.867 21.333-12.8 81.067-8.533 132.267-8.533v0c12.8 0 29.867 0 38.4 0h507.733c12.8 0 29.867 0 42.667 0 55.467-4.267 119.467-8.533 140.8 17.067 12.8 21.333 12.8 174.933 8.533 264.533 0 21.333 0 42.667 0 51.2v328.533c0 8.533 0 17.067 0 25.6 0 38.4 4.267 81.067-21.333 93.867-12.8 4.267-29.867 8.533-42.667 8.533 72.533-8.533-157.867-4.267-435.2-4.267zM891.733 652.8h-768c0 38.4 0 81.067 0 119.467l8.533 17.067c89.6 0 170.667 0 256 0v0 0 0 0 0c106.667 0 213.333 0 324.267 0 46.933 4.267 93.867 4.267 140.8 0 12.8 0 25.6-4.267 34.133-12.8l4.267-123.733zM149.333 742.4l-8.533-12.8-4.267-17.067 12.8-12.8h17.067c4.267 4.267 4.267 8.533 8.533 12.8l4.267 17.067-12.8 8.533-17.067 4.267zM234.667 738.133l8.533-4.267v-17.067c-4.267-12.8-29.867-25.6-38.4-4.267 0 4.267-4.267 12.8 0 17.067l12.8 12.8 17.067-4.267zM285.867 742.4l-8.533-12.8v-17.067c0-4.267 4.267-8.533 8.533-12.8h21.333c8.533 8.533 8.533 21.333 8.533 29.867l-12.8 8.533-17.067 4.267zM166.4 315.733v187.733h34.133v-81.067c0 0 0 0 4.267 4.267v0c12.8 12.8 29.867 25.6 55.467 17.067 34.133-12.8 29.867-64 29.867-110.933v0 0 0 0 0 0 0 0c0-4.267 0-8.533 0-17.067h-38.4l-4.267 85.333-8.533 12.8h-17.067c-4.267 0-8.533-4.267-8.533-8.533-12.8-12.8-8.533-46.933-8.533-76.8 0-4.267 0-8.533 0-12.8h-38.4zM725.333 298.667c12.8 64 25.6 132.267 38.4 204.8h25.6l-38.4-204.8h-25.6zM819.2 298.667h-25.6l38.4 204.8h25.6l-38.4-204.8zM328.533 486.4l38.4 4.267v-46.933h29.867v-25.6h-29.867c0-4.267 0-8.533 0-12.8 0-21.333-4.267-42.667 4.267-55.467 4.267-8.533 12.8-8.533 21.333-4.267l4.267-21.333c-17.067-8.533-42.667-12.8-55.467 0-21.333 12.8-17.067 55.467-17.067 85.333v0 0c0 4.267 0 4.267 0 8.533h-17.067v25.6h21.333v42.667zM426.667 439.467v42.667l38.4 4.267v-51.2h29.867v-25.6h-29.867c0-4.267 0-8.533 0-12.8v0 0c0-21.333 0-46.933 4.267-55.467s17.067-8.533 21.333-4.267c4.267-8.533 4.267-12.8 4.267-21.333v0c-17.067-4.267-42.667-8.533-55.467 0-17.067 12.8-17.067 51.2-17.067 85.333 0 4.267 0 4.267 0 8.533h-17.067v25.6h21.333zM554.667 439.467v-21.333c38.4 29.867 81.067 25.6 93.867-25.6 17.067-76.8-51.2-98.133-93.867-64v-64h-38.4v174.933h38.4zM669.867 401.067v38.4h38.4v-38.4h-38.4zM571.733 413.867c12.8 4.267 25.6-4.267 29.867-12.8 8.533-12.8 8.533-25.6 4.267-38.4s-17.067-21.333-34.133-21.333c-4.267 0-12.8 4.267-12.8 8.533-8.533 17.067-8.533 38.4 0 55.467l12.8 8.533zM669.867 315.733v38.4h38.4v-38.4h-38.4z" />
<glyph unicode="&#xe919;" glyph-name="sys-profile" d="M712.533 780.8c12.8 0 29.867 0 46.933 0 64 0 153.6 4.267 179.2-12.8 29.867-25.6 25.6-200.533 21.333-307.2 0-25.6 0-46.933 0-59.733s0-34.133 0-55.467v0 0 0 0 0 0c4.267-72.533 8.533-183.467-8.533-209.067-21.333-29.867-93.867-29.867-153.6-25.6-17.067 0-29.867 0-42.667 0h-516.267c-12.8 0-25.6 0-38.4 0-55.467 0-119.467-4.267-140.8 29.867-12.8 25.6-12.8 72.533-8.533 115.2 0 12.8 0 25.6 0 38.4v315.733c0 12.8 0 25.6 0 38.4 0 38.4-4.267 76.8 4.267 102.4 8.533 12.8 21.333 17.067 34.133 25.6 4.267 0 8.533 4.267 12.8 4.267h610.133zM887.467 627.2v51.2h-302.933v-51.2h302.933zM307.2 644.267c-42.667-17.067-72.533-34.133-85.333-81.067-21.333-72.533 34.133-162.133 110.933-145.067 115.2 21.333 110.933 226.133-25.6 226.133v0zM584.533 524.8h302.933v51.2h-302.933v-51.2zM584.533 473.6v-51.2h302.933v51.2h-302.933zM260.267 392.533v0 0 0zM260.267 392.533c-8.533-8.533-25.6-17.067-46.933-25.6-38.4-17.067-81.067-38.4-85.333-59.733s0-42.667 12.8-59.733c12.8-8.533 42.667-8.533 68.267-8.533 8.533 0 12.8 0 21.333 0 17.067 0 38.4 0 59.733 0 76.8-4.267 183.467-8.533 213.333 17.067 4.267 17.067 12.8 51.2 0 64l-128 72.533-29.867-12.8c-29.867-4.267-59.733 0-85.333 12.8zM584.533 371.2v-51.2h302.933v51.2h-302.933zM584.533 217.6h302.933v51.2h-302.933c0-17.067 0-34.133 0-51.2z" />
<glyph unicode="&#xe91a;" glyph-name="sys-email" d="M972.8 712.533h-925.867l465.067-307.2 460.8 307.2zM977.067 674.133l-285.867-187.733 285.867-290.133v477.867zM42.667 196.267v477.867l285.867-187.733-285.867-290.133zM512 366.933v0l-157.867 106.667-273.067-281.6h861.867l-273.067 277.333-157.867-102.4z" />
<glyph unicode="&#xe91b;" glyph-name="sys-sms" d="M507.733 768c-251.733 0-456.533-115.2-460.8-256 0-123.733 153.6-226.133 354.133-251.733-12.8-42.667-42.667-98.133-85.333-123.733 85.333 0 166.4 64 221.867 119.467 238.933 8.533 430.933 119.467 430.933 256 0 140.8-209.067 256-460.8 256zM349.867 469.333c-17.067-17.067-38.4-21.333-64-12.8s-38.4 29.867-38.4 55.467c0 17.067 4.267 29.867 17.067 42.667s25.6 17.067 42.667 17.067c25.6 0 46.933-12.8 55.467-34.133s4.267-46.933-12.8-68.267zM507.733 452.267c-34.133 0-59.733 25.6-59.733 59.733 0 17.067 8.533 29.867 17.067 42.667 12.8 12.8 25.6 17.067 42.667 17.067 34.133 0 59.733-25.6 59.733-59.733s-25.6-59.733-59.733-59.733zM750.933 469.333c-17.067-17.067-42.667-21.333-64-12.8-25.6 8.533-38.4 29.867-38.4 55.467 0 17.067 4.267 29.867 17.067 42.667s25.6 17.067 42.667 17.067c25.6 0 46.933-12.8 55.467-34.133 8.533-25.6 4.267-46.933-12.8-68.267z" />
<glyph unicode="&#xe91c;" glyph-name="sys-other-settings" d="M601.6 857.6h-179.2c0-38.4 0-102.4 0-102.4l-59.733-25.6c0 0-4.267 4.267-4.267 4.267l-72.533 68.267c-42.667-42.667-119.467-128-119.467-128s42.667-51.2 68.267-72.533c-8.533-8.533-12.8-21.333-17.067-29.867v0c-4.267-12.8-8.533-21.333-12.8-34.133h-102.4v-179.2h102.4c0 0 17.067-38.4 21.333-64v-4.267l-68.267-68.267 132.267-128c21.333 21.333 68.267 76.8 68.267 76.8 21.333-12.8 42.667-21.333 64-29.867v-102.4h179.2v102.4l64 21.333h4.267l68.267-68.267 128 132.267c-21.333 21.333-46.933 42.667-68.267 68.267l21.333 68.267h102.4v174.933h-102.4l-21.333 64v4.267l68.267 68.267c-42.667 42.667-128 123.733-128 123.733s-46.933-46.933-68.267-68.267c-12.8 4.267-21.333 8.533-34.133 12.8s-21.333 8.533-34.133 12.8v102.4zM332.8 529.067c25.6 68.267 89.6 110.933 162.133 110.933 72.533 4.267 140.8-38.4 170.667-106.667 25.6-55.467 21.333-119.467-12.8-170.667s-89.6-85.333-149.333-85.333c-123.733-8.533-217.6 132.267-170.667 251.733zM503.467 567.467c59.733 0 110.933-46.933 110.933-110.933 0-59.733-46.933-110.933-110.933-110.933s-110.933 46.933-110.933 110.933c0 64 46.933 110.933 110.933 110.933zM554.667 456.533c0 29.867-25.6 55.467-55.467 55.467s-55.467-25.6-55.467-55.467c0-29.867 25.6-55.467 55.467-55.467 34.133 4.267 55.467 25.6 55.467 55.467z" />
<glyph unicode="&#xe91d;" glyph-name="sys-other-settings-dimension" d="M541.867 140.8v345.6l294.4 106.667v-294.4l-294.4-157.867zM512 537.6l-324.267 119.467 324.267 115.2 324.267-115.2-324.267-119.467zM896 652.8c0 25.6-17.067 46.933-38.4 55.467l-324.267 119.467c-8.533 4.267-12.8 4.267-21.333 4.267s-12.8 0-21.333-4.267l-324.267-119.467c-21.333-8.533-38.4-29.867-38.4-55.467v-354.133c0-21.333 12.8-42.667 29.867-51.2l324.267-179.2c8.533-4.267 17.067-8.533 29.867-8.533 8.533 0 21.333 4.267 29.867 8.533l324.267 179.2c17.067 8.533 29.867 29.867 29.867 51.2v354.133z" />
<glyph unicode="&#xe91e;" glyph-name="sys-reassign-agent" d="M759.467 691.2l-119.467 17.067 34.133 34.133c0 0-238.933 170.667-435.2-51.2l-34.133 51.2c0 0 243.2 260.267 503.467 34.133l34.133 34.133 17.067-119.467zM366.933 635.733c-25.6 12.8-55.467 21.333-85.333 21.333-4.267 0-4.267-4.267-8.533-4.267-42.667-21.333-68.267-29.867-89.6-76.8l-8.533-46.933c-4.267-4.267-4.267-8.533-8.533-12.8v0c-8.533-17.067-17.067-29.867 4.267-55.467h12.8c17.067 12.8 29.867 55.467 0 68.267-4.267 42.667 17.067 81.067 55.467 102.4s81.067 17.067 115.2-4.267c29.867-21.333 46.933-51.2 55.467-98.133-21.333-21.333-21.333-51.2-4.267-72.533h12.8c25.6 25.6 17.067 38.4 8.533 59.733-4.267 4.267-4.267 8.533-8.533 12.8 0 8.533-4.267 17.067-4.267 25.6-4.267 29.867-21.333 59.733-46.933 81.067zM375.467 512c0 34.133 0 64-21.333 81.067v0c-34.133 25.6-81.067 25.6-110.933 0-17.067-25.6-25.6-51.2-21.333-81.067 0 0 0 0 0-4.267v0c0 0 0-4.267 0-4.267-8.533 0-4.267-17.067-4.267-25.6 4.267-8.533 8.533-17.067 12.8-25.6 12.8-42.667 42.667-76.8 85.333-68.267 25.6 4.267 42.667 34.133 51.2 68.267 0 0 0 4.267 0 8.533 8.533 0 8.533 8.533 8.533 17.067v0c0 0 0 0 0 4.267v0c4.267 12.8 8.533 25.6 0 29.867zM234.667 392.533h8.533v-4.267c0-34.133 4.267-46.933 17.067-85.333v0c4.267-8.533 8.533-21.333 12.8-34.133 0 0 0 0 4.267-4.267 0 0 4.267-4.267 4.267-4.267 0 8.533 4.267 21.333 4.267 34.133 0 8.533 4.267 21.333 4.267 29.867-4.267 4.267-4.267 4.267-8.533 4.267v0 0 0 0 0 0 0 0 0 0c-4.267 0-4.267 4.267-8.533 4.267 0 4.267 0 4.267 0 8.533s0 4.267 0 8.533c8.533 0 12.8 0 17.067 0v0 0c8.533 0 21.333 0 29.867 0v-12.8c-4.267-4.267-4.267-4.267-8.533-8.533 0-4.267-4.267-4.267-4.267-8.533 0-8.533 0-17.067 0-29.867 0-8.533 0-17.067 0-29.867 0 0 0 0 4.267 0v0c0 0 4.267-4.267 4.267 0 21.333 29.867 38.4 81.067 38.4 132.267 0 0 0 0 4.267 0 0 0 0 0 4.267 0 0 0 4.267 0 4.267 0 34.133-12.8 98.133-34.133 115.2-98.133 0-8.533 0-17.067-4.267-21.333 0-4.267-4.267-8.533-8.533-8.533-55.467-17.067-110.933-25.6-170.667-25.6-85.333 0-174.933 12.8-183.467 38.4 8.533 72.533 51.2 85.333 85.333 102.4v0c12.8 4.267 25.6 8.533 34.133 12.8v0zM780.8 635.733c-25.6 12.8-55.467 21.333-81.067 21.333-4.267 0-4.267-4.267-8.533-4.267-42.667-17.067-72.533-29.867-89.6-72.533l-8.533-46.933c-4.267-4.267-4.267-8.533-8.533-12.8-8.533-17.067-17.067-29.867 4.267-55.467h12.8c17.067 12.8 29.867 55.467 0 68.267-4.267 42.667 17.067 81.067 55.467 102.4s81.067 17.067 115.2-4.267c25.6-17.067 42.667-51.2 51.2-93.867-21.333-21.333-21.333-51.2-4.267-72.533h12.8c25.6 25.6 17.067 38.4 8.533 59.733-4.267 4.267-4.267 8.533-8.533 12.8 0 8.533-4.267 17.067-4.267 25.6 0 21.333-17.067 51.2-46.933 72.533zM768 593.067c25.6-21.333 25.6-51.2 21.333-81.067 8.533-4.267 4.267-17.067 4.267-25.6 0 0 0 0 0-4.267v0c0-8.533-4.267-17.067-8.533-17.067 0-4.267 0-4.267 0-8.533-8.533-34.133-25.6-59.733-51.2-68.267-42.667-8.533-68.267 21.333-85.333 68.267-4.267 8.533-8.533 17.067-12.8 25.6 0 8.533-4.267 29.867 4.267 25.6 0 0 0 4.267 0 4.267v0c0 0 0 0 0 4.267 0 29.867 4.267 55.467 21.333 81.067 29.867 21.333 76.8 21.333 106.667-4.267v0zM661.333 392.533h-8.533c-8.533-4.267-21.333-8.533-29.867-12.8v0c-38.4-12.8-76.8-29.867-85.333-102.4 8.533-29.867 98.133-38.4 183.467-38.4 59.733 0 115.2 8.533 170.667 25.6 4.267 4.267 4.267 4.267 8.533 8.533 4.267 8.533 4.267 17.067 4.267 21.333-17.067 64-81.067 85.333-115.2 98.133 0 0-4.267 0-4.267 0s0 0-4.267 0c0 0 0 0-4.267 0 0-46.933-12.8-102.4-38.4-132.267 0 0 0 0-4.267 0v0 0c0 0-4.267 4.267-4.267 0 0 8.533 0 17.067 0 29.867 0 8.533 0 17.067 0 29.867 4.267 4.267 4.267 4.267 4.267 8.533v0 0c0 4.267 4.267 4.267 4.267 8.533v12.8c-8.533 0-21.333 0-29.867 0v0 0c-4.267 0-12.8 0-17.067 0 0-4.267 0-4.267 0-8.533s0-4.267 0-8.533c4.267-4.267 4.267-4.267 8.533-4.267s4.267-4.267 8.533-4.267c0-8.533-4.267-21.333-4.267-29.867v0c0-12.8-4.267-21.333-4.267-34.133 0 0 0 0-4.267 4.267 0 0-4.267 4.267-4.267 4.267-4.267 12.8-8.533 25.6-12.8 34.133v0c-12.8 38.4-17.067 51.2-17.067 89.6v0zM324.267 187.733l-123.733 17.067 17.067-119.467 38.4 34.133c260.267-217.6 503.467 34.133 503.467 34.133l-34.133 51.2c-196.267-217.6-435.2-51.2-435.2-51.2l34.133 34.133z" />
<glyph unicode="&#xe91f;" glyph-name="sys-identity-authent" d="M426.667 537.6c25.6-12.8 51.2-17.067 76.8-17.067 81.067 12.8 132.267 46.933 157.867 110.933 25.6 55.467 17.067 123.733-17.067 174.933s-93.867 81.067-153.6 81.067h-21.333c-4.267 0-12.8-4.267-17.067-4.267s-12.8-4.267-17.067-4.267c-51.2-21.333-89.6-64-110.933-115.2-38.4-102.4 34.133-196.267 102.4-226.133zM456.533 157.867c25.6-85.333 106.667-145.067 196.267-145.067 76.8 0 145.067 42.667 179.2 110.933s34.133 149.333-8.533 209.067c0 4.267 0 12.8-4.267 17.067-17.067 106.667-38.4 183.467-145.067 200.533-17.067 4.267-34.133-8.533-46.933-17.067-4.267-4.267-8.533-4.267-8.533-8.533-25.6-17.067-85.333-46.933-136.533-38.4-34.133 4.267-64 12.8-93.867 29.867-4.267 4.267-12.8 8.533-17.067 12.8-12.8 8.533-29.867 21.333-51.2 21.333-12.8 0-29.867-4.267-42.667-8.533-38.4-17.067-55.467-42.667-76.8-76.8-12.8-29.867-21.333-59.733-29.867-89.6l-8.533-64c-12.8-85.333 25.6-140.8 85.333-157.867 29.867-4.267 55.467-8.533 85.333-4.267h123.733zM490.667 285.867c25.6 64 89.6 106.667 162.133 106.667 98.133 0 174.933-76.8 174.933-174.933 0-72.533-42.667-136.533-106.667-162.133s-140.8-12.8-192 38.4c-51.2 51.2-64 128-38.4 192zM738.133 115.2c-8.533-8.533-140.8-4.267-140.8-4.267s-4.267 0-8.533 0c-4.267 4.267-8.533 4.267-12.8 8.533 0 8.533-4.267 12.8-4.267 21.333-4.267 29.867 0 102.4 0 102.4 0 4.267 0 4.267 0 8.533 0 8.533 8.533 12.8 12.8 12.8h17.067c0 12.8 0 25.6 4.267 34.133 12.8 51.2 68.267 55.467 93.867 25.6 8.533-12.8 12.8-34.133 12.8-59.733 12.8 0 25.6 0 29.867-8.533 0-4.267 4.267-8.533 4.267-12.8v-110.933c0-8.533-4.267-12.8-8.533-17.067zM648.533 170.667c-4.267 4.267-8.533 8.533-8.533 12.8-4.267 12.8 8.533 21.333 17.067 25.6 4.267 0 12.8 0 12.8-4.267 4.267-4.267 8.533-8.533 8.533-12.8s0-12.8-4.267-17.067c-4.267-4.267-8.533-8.533-12.8-8.533s-8.533 0-12.8 4.267zM648.533 324.267c-17.067-4.267-21.333-25.6-17.067-55.467h64c4.267 34.133-8.533 64-46.933 55.467z" />
<glyph unicode="&#xe920;" glyph-name="sys-ccpa" d="M870.4 320c0 17.067 0 38.4 0 59.733 4.267 59.733 4.267 119.467-4.267 162.133-17.067 8.533-51.2 8.533-81.067 8.533h-4.267c4.267 153.6-29.867 243.2-119.467 298.667-162.133 115.2-358.4 8.533-413.867-132.267-17.067-42.667-17.067-106.667-17.067-166.4v-4.267c-29.867 0-59.733 0-89.6-8.533-8.533-42.667-4.267-98.133-4.267-149.333 0-17.067 0-38.4 0-55.467 0-29.867 0-59.733 0-89.6 0-81.067 0-166.4 8.533-238.933 29.867-12.8 76.8-8.533 119.467-8.533 12.8 0 25.6 0 38.4 0h362.667c12.8 0 34.133 0 51.2 0 55.467-4.267 110.933-4.267 149.333 8.533 8.533 64 4.267 145.067 4.267 226.133 0 34.133 0 59.733 0 89.6zM661.333 98.133l-76.8-12.8c-17.067 21.333-25.6 29.867-38.4 38.4s-25.6 12.8-59.733 25.6c-21.333 17.067-34.133 59.733-38.4 85.333-34.133 25.6-76.8 110.933-55.467 174.933v4.267h106.667v-106.667c25.6-29.867 55.467-59.733 89.6-85.333 29.867-21.333 55.467-46.933 81.067-72.533-17.067-17.067-12.8-29.867-8.533-51.2zM699.733 567.467c0-4.267 0-12.8 0-17.067h-384c0 106.667 12.8 179.2 72.533 221.867 46.933 38.4 110.933 51.2 170.667 34.133s110.933-59.733 132.267-115.2c12.8-29.867 8.533-76.8 8.533-123.733z" />
<glyph unicode="&#xe921;" glyph-name="sys-export-import" d="M516.267 482.133v102.4l145.067-136.533v379.733h46.933v-379.733l145.067 140.8v-93.867l-157.867-200.533-179.2 187.733zM42.667 68.267v140.8h904.533v-140.8h-904.533zM234.667 302.933h46.933v379.733l145.067-145.067v106.667l-179.2 183.467-157.867-187.733v-93.867l140.8 140.8v-384z" />
<glyph unicode="&#xe922;" glyph-name="sys-chatbot" d="M857.6 213.333v-89.6c0-51.2-34.133-93.867-72.533-93.867h-550.4c-38.4 0-72.533 42.667-72.533 93.867v85.333c-46.933 21.333-72.533 64-72.533 115.2s29.867 93.867 72.533 115.2v85.333c0 51.2 34.133 93.867 72.533 93.867h209.067l-106.667 136.533c0 0-102.4 0-55.467 106.667 0 0 76.8 55.467 72.533-68.267l136.533-174.933 34.133-4.267 132.267 170.667c0 0-4.267 128 72.533 72.533 0 0 46.933-89.6-46.933-98.133l-106.667-145.067h204.8c38.4 0 72.533-42.667 72.533-93.867v-85.333c42.667-12.8 72.533-55.467 72.533-110.933s-25.6-102.4-68.267-110.933zM823.467 516.267c4.267 21.333-12.8 42.667-34.133 46.933h-554.667c-21.333-4.267-38.4-25.6-34.133-46.933v-388.267c-4.267-21.333 12.8-42.667 34.133-46.933h550.4c21.333 4.267 38.4 25.6 34.133 46.933l4.267 388.267zM588.8 396.8c0-38.4 25.6-72.533 55.467-72.533v0c29.867 0 55.467 34.133 55.467 72.533s-25.6 72.533-55.467 72.533-55.467-29.867-55.467-72.533zM375.467 324.267c-29.867 0-55.467 34.133-55.467 72.533s25.6 72.533 55.467 72.533c29.867 0 55.467-34.133 55.467-72.533s-21.333-72.533-55.467-72.533v0zM426.667 230.4c0-29.867 38.4-55.467 85.333-55.467v0c46.933 0 85.333 25.6 85.333 55.467h-170.667z" />
<glyph unicode="&#xe923;" glyph-name="users-campaign-category" d="M853.333 699.733c0-12.8-4.267-21.333 0-25.6 0 0 4.267-4.267 4.267-4.267 4.267 0 4.267 0 4.267 4.267 8.533 4.267 17.067 46.933 12.8 68.267-4.267 46.933-21.333 68.267-42.667 93.867-4.267 8.533-12.8 12.8-17.067 21.333h-8.533l-4.267-4.267c0-4.267 0-8.533 0-12.8 29.867-12.8 51.2-64 55.467-106.667 0-8.533 0-21.333-4.267-34.133zM925.867 256c4.267 0 8.533 0 12.8 4.267 17.067 12.8 29.867 89.6 21.333 123.733-17.067 89.6-46.933 123.733-85.333 170.667v0 0 0c-8.533 12.8-21.333 25.6-29.867 38.4h-17.067l-8.533-4.267c0-8.533-4.267-17.067 0-21.333 55.467-25.6 89.6-115.2 102.4-192 4.267-17.067 0-42.667-4.267-64v0c-4.267-21.333-8.533-38.4-4.267-51.2 4.267 0 8.533-4.267 12.8-4.267zM832 695.467h-8.533v4.267c0 4.267 0 12.8 0 21.333v0 0c0 12.8 4.267 21.333 0 29.867-4.267 21.333-17.067 34.133-25.6 46.933-4.267 4.267-4.267 8.533-8.533 12.8 0 4.267 0 8.533 4.267 8.533h4.267c25.6-21.333 59.733-76.8 34.133-123.733zM810.667 712.533c4.267 4.267 4.267 8.533 4.267 12.8v0c4.267 25.6-8.533 42.667-21.333 55.467 0 4.267-4.267 4.267-4.267 4.267h-4.267c0 0 0-4.267 0-4.267 12.8-12.8 21.333-25.6 21.333-42.667l4.267-25.6zM802.133 652.8c-8.533-4.267-21.333 0-29.867 4.267-4.267 4.267-8.533 4.267-8.533 4.267-25.6 8.533-55.467 8.533-81.067 4.267l-29.867-8.533-25.6 106.667c29.867 8.533 59.733 21.333 85.333 42.667 4.267 4.267 8.533 8.533 12.8 17.067s12.8 17.067 17.067 21.333h4.267l12.8-4.267 46.933-179.2c0-4.267-4.267-8.533-4.267-8.533zM512 695.467c-12.8-68.267 93.867-59.733 132.267-42.667v0 0c-8.533 34.133-17.067 68.267-25.6 106.667h-4.267l-25.6-8.533c-34.133-8.533-72.533-21.333-76.8-55.467zM482.133 529.067v0c4.267 12.8 4.267 29.867 4.267 42.667-8.533 51.2-29.867 110.933-68.267 128 0 4.267 0 8.533 0 17.067l4.267 4.267h12.8c8.533-8.533 12.8-17.067 21.333-25.6 25.6-29.867 46.933-55.467 55.467-115.2 4.267-21.333-4.267-72.533-17.067-81.067 0-4.267-4.267-4.267-8.533-4.267s-4.267 0-8.533 4.267c0 4.267 0 17.067 4.267 29.867zM443.733 520.533h8.533c29.867 51.2-8.533 123.733-42.667 145.067h-4.267c-4.267 0-4.267-4.267-4.267-8.533 4.267-4.267 8.533-8.533 12.8-12.8 12.8-17.067 25.6-29.867 29.867-55.467 4.267-8.533 0-25.6 0-38.4-4.267-8.533-4.267-21.333 0-29.867v0zM430.933 558.933c0-4.267-4.267-12.8-8.533-17.067h-4.267c0 8.533 0 21.333 0 29.867 0 21.333-8.533 38.4-25.6 55.467 0 4.267 0 4.267 0 8.533h4.267c0-4.267 4.267-4.267 4.267-8.533v0 0 0c21.333-17.067 38.4-38.4 29.867-68.267zM379.733 477.867c12.8-4.267 25.6-12.8 34.133-8.533v0c4.267 0 4.267 4.267 8.533 8.533-21.333 72.533-38.4 140.8-59.733 213.333l-12.8 4.267h-4.267c-8.533-4.267-17.067-12.8-21.333-25.6-8.533-4.267-12.8-12.8-21.333-17.067-29.867-25.6-68.267-42.667-106.667-51.2l34.133-128 34.133 8.533c34.133 8.533 68.267 8.533 102.4 0 4.267 0 8.533-4.267 12.8-4.267zM221.867 473.6c-46.933-25.6-179.2-38.4-162.133 46.933 8.533 42.667 51.2 55.467 89.6 68.267v0l34.133 8.533h4.267l34.133-123.733zM204.8 426.667l-17.067 29.867c-12.8-8.533-29.867-12.8-46.933-8.533 0-12.8 21.333-89.6 29.867-93.867 17.067-12.8 72.533 8.533 81.067 21.333 0 17.067-12.8 25.6-25.6 34.133-8.533 4.267-17.067 8.533-21.333 17.067zM422.4 405.333l51.2 12.8h8.533c17.067-64 34.133-128 51.2-187.733h-4.267c-68.267-34.133-268.8-51.2-243.2 72.533 12.8 64 76.8 81.067 136.533 102.4v0 0zM503.467 157.867l-21.333 46.933c-21.333-12.8-46.933-17.067-72.533-12.8 0-21.333 29.867-132.267 42.667-140.8 21.333-17.067 110.933 12.8 119.467 34.133-4.267 25.6-21.333 38.4-38.4 51.2-12.8 4.267-21.333 12.8-29.867 21.333zM601.6 554.667c-8.533 25.6-17.067 51.2-21.333 76.8 12.8 0 29.867 0 38.4 8.533 4.267-8.533 8.533-17.067 12.8-25.6 4.267-4.267 8.533-8.533 17.067-12.8v0c8.533-8.533 17.067-12.8 21.333-29.867-8.533-8.533-55.467-25.6-68.267-17.067v0zM652.8 499.2c-46.933-34.133-93.867-55.467-157.867-76.8v0c17.067-64 34.133-128 51.2-187.733l51.2 17.067c51.2 8.533 102.4 8.533 149.333-4.267 4.267 0 12.8-4.267 17.067-8.533 17.067-8.533 42.667-17.067 55.467-8.533 4.267 4.267 8.533 4.267 8.533 12.8l-85.333 320-21.333 8.533-8.533-4.267c-12.8-4.267-21.333-21.333-34.133-34.133v0 0c-8.533-17.067-17.067-29.867-25.6-34.133zM827.733 337.067l4.267 46.933c-4.267 34.133-17.067 51.2-34.133 72.533v0c0 4.267-4.267 4.267-4.267 8.533s0 8.533 4.267 12.8h8.533c4.267-4.267 4.267-8.533 8.533-12.8v0c21.333-25.6 46.933-55.467 34.133-102.4 0-8.533-4.267-17.067-8.533-25.6h-12.8zM814.933 486.4c21.333-21.333 38.4-42.667 46.933-85.333v0c4.267-17.067 0-38.4 0-55.467s-4.267-34.133 0-42.667l4.267-4.267 12.8 4.267c46.933 76.8-17.067 183.467-59.733 217.6h-8.533c-4.267-4.267-8.533-8.533-8.533-17.067 0-4.267 4.267-8.533 12.8-17.067z" />
<glyph unicode="&#xe924;" glyph-name="sys-twilio" d="M85.333 448c0-234.667 192-426.667 426.667-426.667s426.667 192 426.667 426.667c0 234.667-192 426.667-426.667 426.667s-426.667-192-426.667-426.667zM200.533 448c0 174.933 140.8 311.467 311.467 311.467 174.933 0 311.467-140.8 311.467-311.467 0-174.933-140.8-311.467-311.467-311.467-174.933 0-311.467 136.533-311.467 311.467zM618.667 256c-34.133 0-68.267 21.333-81.067 55.467s-4.267 72.533 17.067 98.133c25.6 25.6 64 34.133 98.133 17.067 34.133-12.8 55.467-46.933 55.467-81.067 0-21.333-8.533-46.933-25.6-64s-42.667-25.6-64-25.6zM529.067 554.667c0-46.933 38.4-89.6 89.6-89.6 21.333 0 46.933 8.533 64 25.6s25.6 38.4 25.6 64c0 46.933-38.4 89.6-89.6 89.6s-89.6-42.667-89.6-89.6zM405.333 256c-34.133 0-68.267 21.333-81.067 55.467s-4.267 72.533 17.067 98.133c25.6 25.6 64 34.133 98.133 17.067 34.133-12.8 55.467-46.933 55.467-81.067 0-21.333-8.533-46.933-25.6-64s-38.4-25.6-64-25.6zM320 554.667c0-46.933 38.4-89.6 89.6-89.6 21.333 0 46.933 8.533 64 25.6s25.6 38.4 25.6 64c0 46.933-38.4 89.6-89.6 89.6-51.2-4.267-89.6-42.667-89.6-89.6z" />
<glyph unicode="&#xe925;" glyph-name="sys-twilio-operator" d="M938.667 439.467v-85.333c0-42.667-34.133-76.8-76.8-76.8h-55.467c-55.467-149.333-192-243.2-294.4-243.2s-243.2 89.6-294.4 243.2h-55.467c-42.667 0-76.8 34.133-76.8 76.8v85.333c0 29.867 17.067 55.467 38.4 68.267 0 119.467 34.133 209.067 102.4 273.067 68.267 59.733 162.133 93.867 285.867 93.867s217.6-34.133 285.867-93.867c68.267-64 102.4-157.867 102.4-273.067 21.333-17.067 38.4-42.667 38.4-68.267zM776.533 413.867c0 21.333 0 38.4-4.267 55.467-34.133 29.867-93.867 55.467-170.667 64 8.533-12.8 17.067-25.6 25.6-46.933-46.933 38.4-140.8 29.867-209.067 110.933-4.267 4.267-8.533 8.533-8.533 12.8 0 0 0 0 0 0v0c-12.8 17.067-17.067 25.6-17.067 17.067 0-93.867-68.267-170.667-145.067-179.2 0-8.533 0-21.333 0-34.133 0-38.4 8.533-76.8 17.067-110.933 42.667-51.2 110.933-64 174.933-68.267 12.8 17.067 38.4 29.867 68.267 29.867 42.667 0 72.533-21.333 72.533-51.2s-34.133-51.2-72.533-51.2c-29.867 0-59.733 12.8-68.267 34.133-42.667 4.267-89.6 8.533-132.267 29.867 59.733-89.6 153.6-132.267 209.067-132.267 85.333-4.267 260.267 110.933 260.267 320zM853.333 512c-4.267 204.8-123.733 315.733-341.333 315.733s-337.067-110.933-341.333-315.733h29.867c8.533 68.267 34.133 128 68.267 170.667 51.2 72.533 136.533 106.667 243.2 106.667s192-34.133 243.2-106.667c34.133-42.667 55.467-102.4 68.267-170.667h29.867z" />
<glyph unicode="&#xe926;" glyph-name="contact-strategy" d="M985.6 648.533c-25.6 64-64 115.2-110.933 162.133s-102.4 81.067-162.133 110.933c-64 25.6-132.267 38.4-200.533 38.4-46.933 0-93.867-4.267-136.533-17.067s-85.333-29.867-123.733-51.2c-34.133-25.6-72.533-51.2-102.4-81.067s-55.467-68.267-81.067-102.4c-21.333-38.4-38.4-81.067-51.2-123.733s-17.067-89.6-17.067-136.533 4.267-93.867 17.067-136.533c12.8-42.667 29.867-85.333 51.2-123.733s46.933-72.533 81.067-102.4c29.867-29.867 64-59.733 102.4-81.067s76.8-38.4 123.733-51.2c42.667-12.8 89.6-17.067 136.533-17.067s93.867 4.267 136.533 17.067c42.667 12.8 85.333 29.867 123.733 51.2s72.533 46.933 102.4 81.067c29.867 29.867 59.733 64 81.067 102.4s38.4 76.8 51.2 123.733c12.8 42.667 17.067 89.6 17.067 136.533 0 68.267-12.8 136.533-38.4 200.533zM512 106.667c-34.133 0-64 25.6-68.267 64-68.267 21.333-119.467 68.267-149.333 128-68.267 8.533-123.733 64-123.733 136.533 0 21.333 4.267 38.4 12.8 55.467s25.6 29.867 46.933 34.133c25.6 4.267 55.467 8.533 89.6 17.067 17.067 4.267 29.867-12.8 25.6-29.867-12.8-59.733-8.533-136.533 25.6-179.2-8.533-17.067-25.6-25.6-42.667-29.867 25.6-46.933 68.267-85.333 123.733-98.133 8.533 25.6 34.133 42.667 64 42.667 38.4 0 68.267-29.867 68.267-68.267-4.267-42.667-34.133-72.533-72.533-72.533zM512 699.733c-68.267 0-123.733-34.133-157.867-89.6-29.867 0-55.467-4.267-85.333-8.533-8.533-4.267-12.8 4.267-8.533 12.8 38.4 102.4 136.533 174.933 251.733 174.933s213.333-72.533 251.733-174.933c4.267-8.533-4.267-12.8-12.8-12.8-25.6 4.267-55.467 8.533-85.333 12.8-29.867 51.2-85.333 85.333-153.6 85.333zM712.533 298.667c-21.333 0-42.667 12.8-55.467 29.867 29.867 38.4 34.133 123.733 21.333 187.733-4.267 17.067 8.533 29.867 25.6 29.867 29.867-4.267 59.733-8.533 89.6-17.067 21.333-4.267 38.4-12.8 46.933-34.133 8.533-17.067 12.8-38.4 12.8-55.467 0-81.067-64-140.8-140.8-140.8z" />
<glyph unicode="&#xe927;" glyph-name="contact-strategy-operator" d="M819.2 635.733c8.533 0 12.8 4.267 12.8 12.8-46.933 132.267-174.933 226.133-320 226.133s-273.067-93.867-320-221.867c0-8.533 4.267-17.067 12.8-17.067 34.133 4.267 72.533 12.8 110.933 17.067 38.4 68.267 110.933 110.933 196.267 110.933s153.6-42.667 196.267-110.933c38.4-4.267 76.8-8.533 110.933-17.067zM512 192c-34.133 0-68.267-21.333-81.067-55.467-64 21.333-119.467 64-153.6 123.733 21.333 4.267 42.667 21.333 51.2 38.4-42.667 59.733-46.933 157.867-29.867 234.667 4.267 17.067-8.533 29.867-25.6 29.867-42.667-8.533-85.333-12.8-128-21.333-21.333-4.267-38.4-12.8-46.933-34.133-4.267-21.333-12.8-46.933-12.8-76.8 0-89.6 68.267-162.133 153.6-170.667 34.133-76.8 102.4-136.533 187.733-162.133 4.267-42.667 38.4-76.8 85.333-76.8s85.333 38.4 85.333 85.333c0 46.933-38.4 85.333-85.333 85.333zM921.6 507.733c-8.533 17.067-29.867 29.867-46.933 34.133-38.4 8.533-81.067 17.067-128 21.333-17.067 4.267-29.867-12.8-25.6-29.867 17.067-76.8 17.067-192-25.6-243.2 17.067-21.333 38.4-34.133 68.267-34.133 98.133 0 174.933 76.8 174.933 174.933 0 29.867-8.533 55.467-17.067 76.8z" />
<glyph unicode="&#xe928;" glyph-name="license-billing" d="M985.6 648.533c-25.6 64-64 115.2-110.933 162.133s-102.4 81.067-162.133 110.933c-64 25.6-132.267 38.4-200.533 38.4-46.933 0-93.867-4.267-136.533-17.067s-85.333-29.867-123.733-51.2c-34.133-25.6-72.533-51.2-102.4-81.067s-55.467-68.267-81.067-102.4c-21.333-38.4-38.4-81.067-51.2-123.733s-17.067-89.6-17.067-136.533 4.267-93.867 17.067-136.533c12.8-42.667 29.867-85.333 51.2-123.733s46.933-72.533 81.067-102.4c29.867-29.867 64-59.733 102.4-81.067s76.8-38.4 123.733-51.2c42.667-12.8 89.6-17.067 136.533-17.067s93.867 4.267 136.533 17.067c42.667 12.8 85.333 29.867 123.733 51.2s72.533 46.933 102.4 81.067c29.867 29.867 59.733 64 81.067 102.4s38.4 76.8 51.2 123.733c12.8 42.667 17.067 89.6 17.067 136.533 0 68.267-12.8 136.533-38.4 200.533zM192 256c-25.6 0-42.667 17.067-42.667 42.667s17.067 42.667 42.667 42.667 42.667-17.067 42.667-42.667-17.067-42.667-42.667-42.667zM192 405.333c-25.6 0-42.667 17.067-42.667 42.667s17.067 42.667 42.667 42.667 42.667-17.067 42.667-42.667-17.067-42.667-42.667-42.667zM192 554.667c-25.6 0-42.667 17.067-42.667 42.667s17.067 42.667 42.667 42.667 42.667-17.067 42.667-42.667-17.067-42.667-42.667-42.667zM490.667 256h-170.667c-25.6 0-42.667 17.067-42.667 42.667s17.067 42.667 42.667 42.667h170.667c25.6 0 42.667-17.067 42.667-42.667s-17.067-42.667-42.667-42.667zM490.667 405.333h-170.667c-25.6 0-42.667 17.067-42.667 42.667s17.067 42.667 42.667 42.667h170.667c25.6 0 42.667-17.067 42.667-42.667s-17.067-42.667-42.667-42.667zM490.667 554.667h-170.667c-25.6 0-42.667 17.067-42.667 42.667s17.067 42.667 42.667 42.667h170.667c25.6 0 42.667-17.067 42.667-42.667s-17.067-42.667-42.667-42.667zM874.667 366.933c0-51.2-34.133-93.867-85.333-106.667v-29.867c0-21.333-17.067-38.4-42.667-38.4s-42.667 17.067-42.667 38.4v25.6h-4.267c-55.467 0-102.4 42.667-102.4 98.133 0 21.333 17.067 38.4 42.667 38.4 21.333 0 42.667-17.067 42.667-38.4 0-8.533 8.533-17.067 17.067-17.067h59.733c17.067 0 29.867 12.8 29.867 29.867v17.067c0 17.067-12.8 29.867-29.867 29.867h-38.4c-64 0-115.2 51.2-115.2 110.933v4.267c0 55.467 42.667 98.133 98.133 106.667v29.867c0 21.333 17.067 38.4 42.667 38.4s42.667-17.067 42.667-38.4v-29.867c42.667-12.8 72.533-46.933 72.533-93.867 0-21.333-17.067-38.4-42.667-38.4-21.333 0-42.667 17.067-42.667 38.4 0 8.533-8.533 17.067-21.333 17.067h-34.133c-17.067 0-29.867-12.8-29.867-29.867v-4.267c0-17.067 12.8-29.867 29.867-29.867h38.4c64 0 115.2-51.2 115.2-110.933v-17.067z" />
<glyph unicode="&#xe929;" glyph-name="license-billing-port" d="M840.533 635.733c-17.067 17.067-51.2 17.067-68.267 0l-153.6-153.6-89.6 89.6 153.6 153.6c17.067 17.067 17.067 51.2 0 68.267s-51.2 17.067-68.267 0l-153.6-153.6-59.733 59.733-59.733-64c-85.333-85.333-93.867-209.067-34.133-307.2l-136.533-136.533v-68.267h68.267l136.533 136.533c93.867-64 221.867-51.2 307.2 34.133l59.733 59.733-55.467 55.467 153.6 153.6c17.067 21.333 17.067 51.2 0 72.533z" />
<glyph unicode="&#xe92a;" glyph-name="users-user" d="M985.6 648.533c-25.6 64-64 115.2-110.933 162.133s-102.4 81.067-162.133 110.933c-64 25.6-132.267 38.4-200.533 38.4-46.933 0-93.867-4.267-136.533-17.067s-85.333-29.867-123.733-51.2c-34.133-25.6-72.533-51.2-102.4-81.067s-55.467-68.267-81.067-102.4c-21.333-38.4-38.4-81.067-51.2-123.733s-17.067-89.6-17.067-136.533 4.267-93.867 17.067-136.533c12.8-42.667 29.867-85.333 51.2-123.733s46.933-72.533 81.067-102.4c29.867-29.867 64-59.733 102.4-81.067s76.8-38.4 123.733-51.2c42.667-12.8 89.6-17.067 136.533-17.067s93.867 4.267 136.533 17.067c42.667 12.8 85.333 29.867 123.733 51.2s72.533 46.933 102.4 81.067c29.867 29.867 59.733 64 81.067 102.4s38.4 76.8 51.2 123.733c12.8 42.667 17.067 89.6 17.067 136.533 0 68.267-12.8 136.533-38.4 200.533zM512 725.333c89.6 0 162.133-76.8 162.133-170.667 0-85.333-59.733-153.6-136.533-166.4-8.533 0-17.067-4.267-25.6-4.267s-17.067 0-25.6 4.267c-76.8 12.8-136.533 81.067-136.533 166.4 0 93.867 72.533 170.667 162.133 170.667zM823.467 264.533c-12.8-25.6-34.133-51.2-55.467-72.533s-46.933-42.667-72.533-55.467c-25.6-17.067-55.467-29.867-85.333-38.4s-64-12.8-98.133-12.8-64 4.267-98.133 12.8c-29.867 8.533-59.733 21.333-85.333 38.4-25.6 12.8-51.2 34.133-72.533 55.467s-42.667 46.933-55.467 72.533c0 0-4.267 4.267-4.267 4.267 34.133 64 98.133 110.933 166.4 132.267 34.133-42.667 85.333-72.533 149.333-72.533s110.933 29.867 149.333 72.533c72.533-25.6 136.533-68.267 166.4-132.267 0 0 0 0-4.267-4.267z" />
<glyph unicode="&#xe92b;" glyph-name="users-settings" d="M512 960c-281.6 0-512-230.4-512-512s230.4-512 512-512 512 230.4 512 512-230.4 512-512 512zM294.4 712.533c0 17.067 12.8 25.6 25.6 25.6h110.933c17.067 0 25.6-12.8 25.6-25.6v-110.933c0-17.067-12.8-25.6-25.6-25.6h-110.933c-17.067 0-25.6 12.8-25.6 25.6v110.933zM183.467 686.933h93.867v-55.467h-93.867v55.467zM332.8 192h-149.333v55.467h149.333v-55.467zM512 166.4c0-17.067-12.8-25.6-25.6-25.6h-110.933c-17.067 0-25.6 12.8-25.6 25.6v110.933c0 17.067 12.8 25.6 25.6 25.6h110.933c17.067 0 25.6-12.8 25.6-25.6v-110.933zM183.467 409.6v55.467h371.2v-55.467h-371.2zM840.533 192h-315.733v55.467h315.733v-55.467zM567.467 384v110.933c0 17.067 12.8 25.6 25.6 25.6h110.933c17.067 0 25.6-12.8 25.6-25.6v-110.933c0-17.067-12.8-25.6-25.6-25.6h-110.933c-12.8 0-25.6 8.533-25.6 25.6zM840.533 409.6h-93.867v55.467h93.867v-55.467zM840.533 631.467h-371.2v55.467h371.2v-55.467z" />
<glyph unicode="&#xe92c;" glyph-name="users-users" d="M661.333 405.333c-34.133-42.667-85.333-72.533-149.333-72.533s-110.933 25.6-149.333 72.533c-72.533-25.6-136.533-68.267-166.4-132.267 0 0 4.267-4.267 4.267-4.267 12.8-29.867 34.133-55.467 55.467-76.8s46.933-42.667 72.533-55.467c25.6-17.067 55.467-29.867 85.333-38.4s64-12.8 98.133-12.8 64 4.267 98.133 12.8c29.867 8.533 59.733 21.333 85.333 38.4s51.2 34.133 72.533 55.467c21.333 21.333 42.667 46.933 55.467 72.533 0 0 4.267 4.267 4.267 4.267-34.133 68.267-93.867 110.933-166.4 136.533zM486.4 388.267c8.533 0 17.067-4.267 25.6-4.267s17.067 0 25.6 4.267c76.8 12.8 136.533 81.067 136.533 166.4 0 93.867-72.533 170.667-162.133 170.667s-162.133-76.8-162.133-170.667c0-85.333 59.733-153.6 136.533-166.4z" />
<glyph unicode="&#xe92d;" glyph-name="users-roles" d="M332.8 247.467h-149.333v-55.467h149.333v55.467zM486.4 302.933h-110.933c-17.067 0-25.6-12.8-25.6-25.6v-110.933c0-17.067 12.8-25.6 25.6-25.6h110.933c17.067 0 25.6 12.8 25.6 25.6v110.933c0 12.8-12.8 25.6-25.6 25.6zM554.667 465.067h-371.2v-55.467h371.2v55.467zM277.333 686.933h-93.867v-55.467h93.867v55.467zM840.533 247.467h-315.733v-55.467h315.733v55.467zM430.933 742.4h-110.933c-17.067 0-25.6-12.8-25.6-25.6v-110.933c0-17.067 8.533-29.867 25.6-29.867h110.933c17.067 0 25.6 12.8 25.6 25.6v110.933c0 17.067-12.8 29.867-25.6 29.867zM704 520.533h-110.933c-17.067 0-25.6-12.8-25.6-25.6v-110.933c0-17.067 12.8-25.6 25.6-25.6h110.933c17.067 0 25.6 12.8 25.6 25.6v110.933c0 12.8-12.8 25.6-25.6 25.6zM840.533 465.067h-93.867v-55.467h93.867v55.467zM840.533 686.933h-371.2v-55.467h371.2v55.467z" />
<glyph unicode="&#xe92e;" glyph-name="users-app-parameters" d="M622.933 465.067c0-59.733-51.2-110.933-110.933-110.933s-110.933 51.2-110.933 110.933 51.2 110.933 110.933 110.933 110.933-51.2 110.933-110.933zM840.533 512c0 8.533-4.267 12.8-12.8 17.067l-76.8 12.8c-4.267 12.8-8.533 29.867-17.067 42.667 12.8 21.333 29.867 38.4 46.933 59.733 4.267 4.267 4.267 4.267 4.267 8.533s0 8.533-4.267 8.533c-17.067 25.6-46.933 51.2-72.533 72.533-4.267 4.267-8.533 4.267-12.8 4.267s-8.533 0-8.533-4.267l-59.733-46.933c-12.8 8.533-25.6 12.8-38.4 17.067l-12.8 76.8c0 8.533-8.533 12.8-17.067 12.8h-93.867c-8.533 0-12.8-4.267-17.067-12.8-8.533-25.6-8.533-55.467-12.8-81.067-12.8 0-25.6-4.267-38.4-12.8l-59.733 46.933c-4.267 0-4.267 4.267-8.533 4.267-17.067 0-72.533-64-85.333-76.8 0-4.267-4.267-8.533-4.267-8.533 0-4.267 0-8.533 4.267-8.533 17.067-21.333 29.867-38.4 46.933-59.733-4.267-17.067-12.8-29.867-17.067-42.667l-81.067-12.8c-8.533 0-12.8-8.533-12.8-17.067v-93.867c0-8.533 4.267-12.8 12.8-17.067l76.8-12.8c4.267-12.8 8.533-29.867 17.067-42.667-12.8-21.333-29.867-38.4-46.933-59.733-4.267-4.267-4.267-4.267-4.267-8.533s0-8.533 4.267-8.533c17.067-25.6 46.933-51.2 72.533-72.533 4.267-4.267 8.533-4.267 12.8-4.267s8.533 0 12.8 4.267l59.733 46.933c12.8-8.533 25.6-12.8 38.4-17.067l12.8-76.8c0-8.533 8.533-12.8 17.067-12.8h93.867c8.533 0 12.8 4.267 17.067 12.8 8.533 25.6 8.533 55.467 12.8 81.067 12.8 4.267 25.6 8.533 38.4 17.067l59.733-46.933c4.267-4.267 8.533-4.267 12.8-4.267 12.8 0 72.533 64 81.067 76.8 4.267 4.267 4.267 4.267 4.267 8.533s0 8.533-4.267 12.8c-17.067 21.333-29.867 38.4-46.933 59.733 8.533 12.8 12.8 25.6 17.067 38.4l81.067 12.8c8.533 0 12.8 8.533 12.8 17.067v89.6z" />
<glyph unicode="&#xe92f;" glyph-name="users-campaign" d="M840.533 576v166.4c0 29.867-25.6 55.467-55.467 55.467-81.067-68.267-217.6-166.4-384-166.4h-204.8c-38.4 0-68.267-29.867-68.267-68.267v-81.067c0-38.4 29.867-68.267 68.267-68.267h51.2c-29.867-98.133 8.533-170.667 29.867-247.467 38.4-38.4 149.333-34.133 174.933 17.067-46.933 34.133-85.333 68.267-55.467 119.467-34.133 34.133-17.067 93.867 34.133 110.933 149.333-12.8 273.067-98.133 349.867-162.133 29.867 0 55.467 25.6 55.467 55.467v166.4c29.867 0 55.467 25.6 55.467 55.467 4.267 21.333-21.333 46.933-51.2 46.933zM785.067 315.733c-110.933 85.333-221.867 132.267-328.533 145.067v119.467c110.933 12.8 217.6 59.733 328.533 145.067v-409.6z" />
<glyph unicode="&#xe930;" glyph-name="users-business-outcome" d="M439.467 704h-76.8v4.267l21.333 17.067 128 162.133 8.533-4.267 140.8-174.933v-4.267l-72.533-4.267v-179.2l-76.8-68.267-51.2 51.2-25.6 21.333 4.267 179.2zM593.067 21.333h-149.333c-4.267 247.467 106.667 456.533 294.4 512l-25.6 72.533 221.867-72.533-106.667-200.533-8.533 4.267-21.333 55.467c-145.067-29.867-196.267-200.533-204.8-371.2zM311.467 601.6h-12.8l-209.067-64 106.667-200.533 8.533-4.267 25.6 59.733c68.267-17.067 149.333-98.133 166.4-166.4h4.267c21.333 29.867 34.133 72.533 51.2 110.933 8.533 21.333 17.067 42.667 25.6 59.733-46.933 51.2-115.2 115.2-187.733 136.533l21.333 68.267z" />
<glyph unicode="&#xe931;" glyph-name="users-call-strategy" d="M507.733 789.333c-12.8 0-25.6-12.8-25.6-25.6s12.8-25.6 25.6-25.6c166.4 0 298.667-132.267 298.667-298.667 0-12.8 12.8-25.6 25.6-25.6s25.6 12.8 25.6 25.6c-4.267 192-162.133 349.867-349.867 349.867zM750.933 277.333c-64 0-123.733 12.8-174.933 38.4-4.267 4.267-12.8 4.267-17.067 0-4.267 0-8.533-4.267-12.8-12.8l-34.133-64c-85.333 46.933-157.867 119.467-209.067 209.067l68.267 34.133c8.533 0 12.8 8.533 12.8 12.8s0 12.8 0 17.067c-29.867 51.2-42.667 110.933-42.667 174.933 0 12.8-8.533 21.333-21.333 21.333h-128c-12.8 0-21.333-8.533-21.333-21.333 0-320 260.267-580.267 580.267-580.267 12.8 0 21.333 8.533 21.333 21.333v128c0 12.8-8.533 21.333-21.333 21.333zM507.733 541.867c55.467 0 98.133-42.667 98.133-98.133 0-12.8 12.8-25.6 25.6-25.6s25.6 12.8 25.6 25.6c0 81.067-68.267 149.333-149.333 149.333-12.8 0-25.6-12.8-25.6-25.6s8.533-25.6 25.6-25.6zM507.733 640c110.933 0 200.533-89.6 200.533-200.533 0-12.8 12.8-25.6 25.6-25.6s25.6 12.8 25.6 25.6c0 136.533-110.933 247.467-247.467 247.467-12.8 0-25.6-12.8-25.6-25.6-4.267-8.533 4.267-21.333 21.333-21.333z" />
<glyph unicode="&#xe932;" glyph-name="users-compliance" d="M384 409.6c-4.267 0-8.533-4.267-8.533-8.533v-46.933c0-4.267 4.267-8.533 8.533-8.533h200.533c-8.533-17.067-12.8-38.4-12.8-59.733 0-8.533 0-17.067 0-25.6h-187.733c-4.267 0-8.533-4.267-8.533-8.533v-46.933c0-4.267 4.267-8.533 8.533-8.533h213.333c42.667-68.267 128-98.133 204.8-72.533v-81.067h-657.067v814.933h657.067v-409.6c-64 21.333-132.267 8.533-179.2-38.4h-238.933zM861.867 217.6c-12.8-21.333-29.867-38.4-51.2-51.2-42.667-25.6-93.867-25.6-136.533 0-21.333 12.8-38.4 29.867-51.2 51.2-25.6 42.667-25.6 93.867 0 136.533 12.8 21.333 29.867 38.4 51.2 51.2 42.667 25.6 93.867 25.6 136.533 0 21.333-12.8 38.4-29.867 51.2-51.2 25.6-42.667 25.6-93.867 0-136.533zM832 324.267l-17.067 17.067c0 4.267-4.267 4.267-8.533 4.267s-4.267 0-8.533-4.267l-72.533-76.8-38.4 38.4c0 4.267-4.267 4.267-8.533 4.267s-4.267 0-8.533-4.267l-17.067-17.067c-4.267-4.267-4.267-4.267-4.267-8.533s0-4.267 4.267-8.533l64-64c0-4.267 4.267-4.267 8.533-4.267s4.267 0 8.533 4.267l98.133 98.133c4.267 0 4.267 4.267 4.267 8.533s-4.267 8.533-4.267 12.8zM315.733 708.267c0 4.267-4.267 8.533-8.533 8.533h-46.933c-4.267-4.267-8.533-4.267-8.533-8.533v-46.933c0-4.267 4.267-8.533 8.533-8.533h46.933c4.267 0 8.533 4.267 8.533 8.533v46.933zM307.2 563.2h-46.933c-4.267 0-8.533-4.267-8.533-8.533v-46.933c0-4.267 4.267-8.533 8.533-8.533h46.933c4.267 0 8.533 4.267 8.533 8.533v46.933c0 4.267-4.267 8.533-8.533 8.533zM315.733 401.067c0 4.267-4.267 8.533-8.533 8.533h-46.933c-4.267 0-8.533-4.267-8.533-8.533v-46.933c0-4.267 4.267-8.533 8.533-8.533h46.933c4.267 0 8.533 4.267 8.533 8.533v46.933zM307.2 260.267h-46.933c-4.267 0-8.533-4.267-8.533-8.533v-46.933c0-4.267 4.267-8.533 8.533-8.533h46.933c4.267 0 8.533 4.267 8.533 8.533v46.933c0 4.267-4.267 8.533-8.533 8.533zM699.733 708.267c0 4.267-4.267 8.533-8.533 8.533h-307.2c-4.267 0-8.533-4.267-8.533-8.533v-46.933c0-4.267 4.267-8.533 8.533-8.533h307.2c4.267 0 8.533 4.267 8.533 8.533v46.933zM691.2 563.2h-307.2c-4.267 0-8.533-4.267-8.533-8.533v-46.933c0-4.267 4.267-8.533 8.533-8.533h307.2c4.267 0 8.533 4.267 8.533 8.533v46.933c0 4.267-4.267 8.533-8.533 8.533z" />
<glyph unicode="&#xe933;" glyph-name="users-time-zone" d="M814.933 610.133c8.533-38.4 25.6-119.467 21.333-123.733 21.333-17.067 42.667-42.667 59.733-68.267 64-115.2-4.267-256-76.8-302.933-59.733-38.4-162.133-17.067-162.133-17.067l-42.667-29.867c-68.267-34.133-149.333-42.667-226.133-25.6-217.6 59.733-388.267 354.133-243.2 622.933 51.2 89.6 132.267 157.867 230.4 187.733l72.533 12.8c192 0 311.467-110.933 366.933-256zM375.467 686.933h187.733v4.267c-4.267 8.533-8.533 21.333-8.533 29.867 0 12.8-4.267 25.6-4.267 38.4-8.533 8.533-12.8 17.067-21.333 25.6v0c-8.533 8.533-17.067 17.067-21.333 29.867l-64 4.267c-38.4-38.4-59.733-85.333-68.267-132.267zM358.4 797.867v0 0 0zM358.4 797.867c-12.8-8.533-25.6-17.067-38.4-25.6-38.4-25.6-76.8-46.933-102.4-85.333h106.667c4.267 8.533 8.533 21.333 17.067 38.4v0c12.8 29.867 25.6 64 17.067 72.533zM567.467 797.867v0 0 0zM567.467 797.867l42.667-110.933h106.667l-12.8 12.8c-17.067 42.667-85.333 85.333-136.533 98.133zM183.467 635.733c-21.333-51.2-38.4-106.667-42.667-162.133l157.867 8.533c4.267 51.2 12.8 102.4 17.067 153.6h-132.267zM358.4 635.733c-8.533-51.2-17.067-106.667-17.067-157.867l256 4.267c0 12.8 0 21.333 0 34.133s0 21.333 0 34.133c-4.267 12.8-4.267 29.867-8.533 42.667s-8.533 29.867-8.533 42.667h-221.867zM622.933 635.733c4.267-42.667 8.533-81.067 17.067-123.733 46.933 21.333 98.133 17.067 153.6 8.533-12.8 38.4-25.6 76.8-38.4 115.2h-132.267zM704 477.867v0 0 0zM704 477.867c-64-12.8-110.933-59.733-128-119.467-34.133-115.2 59.733-234.667 162.133-213.333 89.6 17.067 145.067 102.4 136.533 192-12.8 81.067-85.333 145.067-170.667 140.8zM140.8 426.667v-4.267c8.533-55.467 17.067-123.733 46.933-157.867h128v4.267c-4.267 51.2-12.8 102.4-17.067 157.867h-157.867zM358.4 264.533h166.4v12.8c-17.067 55.467 8.533 115.2 25.6 149.333h-209.067l17.067-162.133zM733.867 315.733l-4.267 85.333-12.8 8.533-17.067 4.267c-4.267-4.267-4.267-8.533-8.533-12.8 0-21.333 0-42.667 0-64v0 0 0 0c0-17.067 0-34.133 0-55.467 0 0 4.267 0 4.267-4.267v0c4.267-4.267 4.267-8.533 8.533-8.533 4.267-4.267 8.533-4.267 12.8-4.267h98.133c4.267 4.267 4.267 4.267 8.533 4.267 0 4.267 4.267 4.267 4.267 4.267s0 0 0 0 0 4.267 0 4.267c4.267 0 4.267 4.267 4.267 8.533 0 8.533 0 17.067-4.267 25.6l-93.867 4.267zM366.933 106.667l-42.667 110.933h-106.667c34.133-51.2 89.6-93.867 149.333-110.933zM375.467 217.6c8.533-51.2 34.133-93.867 68.267-132.267l64 4.267c4.267 8.533 12.8 21.333 17.067 29.867 21.333 29.867 42.667 68.267 12.8 98.133h-162.133zM567.467 106.667l38.4 17.067c0 0 0 4.267 0 4.267-4.267 0-4.267 4.267-4.267 4.267l-21.333 12.8c-4.267-12.8-8.533-25.6-12.8-38.4z" />
<glyph unicode="&#xe934;" glyph-name="users-channel-config" d="M896 315.733c0 21.333-17.067 42.667-42.667 42.667h-42.667v81.067c0 29.867-25.6 55.467-55.467 55.467h-217.6v81.067h42.667c21.333 0 42.667 17.067 42.667 42.667v136.533c0 21.333-17.067 42.667-42.667 42.667h-136.533c-21.333 0-42.667-17.067-42.667-42.667v-136.533c0-21.333 17.067-42.667 42.667-42.667h42.667v-81.067h-221.867c-29.867 0-55.467-25.6-55.467-55.467v-81.067h-38.4c-21.333 0-42.667-17.067-42.667-42.667v-136.533c0-21.333 17.067-42.667 42.667-42.667h136.533c21.333 0 42.667 17.067 42.667 42.667v136.533c0 21.333-17.067 42.667-42.667 42.667h-42.667v81.067h217.6v-81.067h-42.667c-21.333 0-42.667-17.067-42.667-42.667v-136.533c0-21.333 17.067-42.667 42.667-42.667h136.533c21.333 0 42.667 17.067 42.667 42.667v136.533c0 21.333-17.067 42.667-42.667 42.667h-42.667v81.067h217.6v-81.067h-42.667c-21.333 0-42.667-17.067-42.667-42.667v-136.533c0-21.333 17.067-42.667 42.667-42.667h145.067c21.333 0 42.667 17.067 42.667 42.667v136.533z" />
<glyph unicode="&#xe935;" glyph-name="users-holiday" d="M469.333 827.733c140.8-12.8 230.4-72.533 285.867-153.6 21.333-25.6 34.133-59.733 38.4-89.6 0-29.867-21.333-25.6-25.6-25.6 0 0 0 0 0 0-29.867 12.8-123.733 42.667-183.467-12.8-4.267 0-12.8 0-17.067 0-29.867 17.067-59.733 25.6-93.867 29.867v-371.2h-76.8v371.2c-8.533 0-12.8-4.267-17.067-4.267v0c-8.533 0-17.067-4.267-29.867-8.533-17.067-4.267-25.6-8.533-34.133-17.067-12.8-4.267-21.333-8.533-29.867-12.8-34.133 25.6-81.067 38.4-128 25.6-17.067 0-38.4-8.533-55.467-17.067-4.267 0-8.533 0-17.067 0l-12.8 8.533c25.6 187.733 183.467 264.533 324.267 277.333 0 8.533 0 21.333 0 29.867 4.267 17.067 21.333 29.867 34.133 29.867 17.067 0 29.867-12.8 34.133-29.867 4.267-8.533 4.267-17.067 4.267-29.867zM887.467 379.733c34.133 0 55.467-12.8 59.733-46.933 0-4.267-4.267-12.8-8.533-17.067l-192-230.4-81.067-4.267 4.267-4.267c8.533-8.533 17.067-21.333 21.333-38.4 0 0 0-4.267 0-4.267-12.8-25.6-21.333-21.333-34.133-17.067-21.333 21.333-42.667 42.667-59.733 68.267l-213.333-4.267c0 0-4.267 0-8.533-4.267-12.8-25.6-29.867-42.667-51.2-64-8.533-4.267-17.067 0-25.6 8.533s-12.8 17.067-8.533 25.6l25.6 34.133c0 0 0 0 4.267 0 0 0 4.267 0 4.267 0-8.533 0-21.333 0-29.867 0v0c-51.2-4.267-115.2-8.533-119.467 46.933 0 12.8 8.533 25.6 21.333 34.133 4.267 0 8.533 4.267 12.8 4.267 0 0 277.333 0 324.267 0 21.333 29.867 64 85.333 64 85.333h187.733c-4.267 0 59.733 93.867 102.4 128zM588.8 166.4c0 0 17.067 25.6 25.6 38.4h123.733l-29.867-38.4h-119.467z" />
<glyph unicode="&#xe936;" glyph-name="users-global-upload" d="M947.2 256c0 68.267-38.4 136.533-98.133 174.933 4.267 59.733-4.267 115.2-25.6 166.4-59.733 132.267-183.467 247.467-375.467 243.2l-42.667-4.267c-25.6-4.267-51.2-12.8-76.8-21.333-115.2-46.933-187.733-123.733-234.667-243.2-8.533-21.333-12.8-46.933-17.067-68.267-8.533-55.467-4.267-110.933 12.8-162.133 29.867-110.933 106.667-204.8 213.333-251.733 25.6-8.533 51.2-17.067 76.8-25.6 8.533-4.267 17.067-4.267 25.6-4.267 4.267-4.267 12.8-4.267 17.067-4.267 17.067-4.267 34.133-4.267 51.2-4.267l34.133 4.267c25.6 0 51.2 4.267 72.533 12.8 17.067 4.267 29.867 8.533 46.933 17.067 25.6-17.067 51.2-29.867 81.067-34.133h8.533c0 0 4.267 0 4.267 0h4.267c0 0 4.267 0 4.267 0v0 0c0 0 0 0 0 0 4.267 0 4.267 0 8.533 0v0c4.267 0 4.267 0 8.533 0h4.267c110.933 4.267 196.267 93.867 196.267 204.8zM298.667 704c8.533-4.267 17.067-8.533 25.6-17.067 4.267-4.267 4.267-8.533 8.533-8.533 0-4.267-4.267-12.8-4.267-17.067v0c-12.8 8.533-25.6 25.6-29.867 42.667zM302.933 396.8c17.067-12.8 29.867-21.333 46.933-34.133 8.533-4.267 25.6-21.333 21.333-34.133s-8.533-21.333-17.067-29.867c-17.067-17.067-29.867-38.4-42.667-59.733-4.267-8.533-4.267-21.333-8.533-38.4v0c-4.267-17.067-4.267-38.4-12.8-46.933-4.267 0-8.533 12.8-8.533 17.067s0 4.267 0 4.267l-25.6 76.8c-4.267 12.8-8.533 25.6-17.067 38.4-4.267 4.267-4.267 8.533-8.533 8.533v0c-4.267 4.267-12.8 8.533-17.067 17.067 0 8.533 0 21.333 0 29.867s0 17.067 0 21.333c-4.267 17.067-4.267 34.133-12.8 46.933l-12.8 8.533c-4.267 0-4.267 4.267-8.533 4.267v0 0 0c-8.533 4.267-12.8 8.533-21.333 12.8l-12.8 8.533c-17.067 17.067-29.867 34.133-38.4 55.467v0c-4.267-4.267-4.267-8.533-8.533-12.8l4.267 42.667c4.267 21.333 12.8 42.667 21.333 59.733 8.533 21.333 21.333 42.667 34.133 59.733l17.067 25.6 38.4-8.533c21.333-4.267 38.4 0 55.467 12.8l17.067-8.533c-12.8-4.267-25.6-12.8-34.133-21.333-4.267-4.267-4.267-8.533-4.267-12.8 4.267-8.533 21.333-4.267 25.6 0l25.6 4.267c12.8 0 25.6-8.533 29.867-21.333 0-4.267 0-4.267 0-8.533s-4.267-4.267-8.533-4.267c-17.067-4.267-29.867-8.533-42.667-17.067-8.533-4.267-12.8-21.333-17.067-34.133v0c0-12.8-4.267-25.6-8.533-34.133-4.267-4.267-8.533-4.267-17.067-4.267-4.267 0-4.267 0-8.533 0l-72.533-8.533c0 0-4.267-4.267-4.267-4.267v0c-4.267-8.533-12.8-17.067-8.533-29.867 4.267-4.267 8.533-4.267 12.8-4.267s8.533-4.267 12.8-4.267c0-8.533 4.267-12.8 8.533-21.333s8.533-17.067 17.067-21.333c8.533 0 17.067-4.267 25.6-4.267h38.4c12.8 0 21.333-4.267 29.867-12.8l17.067-12.8zM482.133 725.333c0-8.533-4.267-17.067-8.533-29.867l-12.8-8.533c-4.267-4.267-8.533-8.533-12.8-12.8v0c-8.533-8.533-21.333-17.067-34.133-21.333-8.533 0-21.333-4.267-29.867 0 0 8.533 0 12.8 0 17.067 0 12.8 0 21.333 0 29.867l-8.533 21.333 55.467 8.533h29.867c8.533 0 12.8 0 21.333-4.267v0zM494.933 614.4c4.267 4.267 8.533 4.267 12.8 8.533 4.267-4.267 4.267-8.533 4.267-12.8v0c-8.533-4.267-12.8 0-17.067 4.267v0zM520.533 635.733v0c4.267-4.267 12.8-25.6 4.267-29.867 0 0-4.267 0-4.267 0-4.267 4.267 0 21.333 0 29.867v0zM733.867 682.667c12.8-12.8 25.6-29.867 34.133-46.933 38.4-55.467 59.733-123.733 59.733-192v0l-8.533 12.8c-17.067 21.333-38.4 34.133-64 38.4-8.533 4.267-17.067 4.267-25.6 4.267 0-4.267 4.267-4.267 4.267-8.533 8.533-8.533 12.8-17.067 8.533-29.867-68.267 0-132.267-38.4-170.667-98.133-4.267 12.8-17.067 25.6-25.6 34.133h-12.8c-12.8 0-25.6 0-38.4 4.267-17.067 12.8-29.867 29.867-34.133 51.2 0 12.8 4.267 29.867 8.533 42.667 8.533 12.8 17.067 25.6 29.867 34.133 17.067 12.8 72.533 0 102.4-4.267v0c4.267 0 8.533-4.267 12.8-4.267 17.067-4.267 38.4-4.267 42.667 12.8-8.533 8.533-12.8 12.8-21.333 21.333l4.267 4.267c4.267 4.267 4.267 8.533 8.533 8.533 8.533 0 12.8 0 21.333 4.267 0 0 0 0 0 4.267v0c-8.533 12.8-38.4 4.267-46.933-4.267 0-4.267 0-8.533 0-17.067-8.533-8.533-21.333 0-29.867 8.533-4.267 4.267-8.533 8.533-8.533 8.533 0-4.267-4.267-8.533 0-8.533l-21.333 8.533c0 0 0-4.267 0-4.267-4.267 0-4.267 4.267-8.533 4.267-12.8-4.267-25.6-8.533-38.4-17.067-4.267-4.267-8.533-4.267-12.8-4.267-4.267 4.267 8.533 21.333 8.533 25.6 8.533 17.067 25.6 29.867 42.667 38.4l17.067 4.267c0 4.267 0 4.267 0 8.533v0c0 0 0-4.267 0-4.267 8.533 0 12.8 4.267 17.067 4.267 8.533 0 12.8 4.267 21.333 4.267 0 8.533 0 17.067-4.267 21.333s-17.067-8.533-25.6-17.067c-4.267 0-4.267-4.267-4.267-4.267-17.067-4.267-12.8 21.333-8.533 29.867 8.533 8.533 17.067 17.067 29.867 21.333h12.8c25.6 0 34.133-4.267 46.933-17.067l76.8 17.067zM742.4 435.2v0c102.4 0 183.467-81.067 183.467-179.2 0-76.8-46.933-140.8-115.2-170.667s-149.333-12.8-200.533 38.4c-51.2 51.2-68.267 132.267-38.4 200.533s98.133 110.933 170.667 110.933zM704 243.2v-106.667h81.067v106.667h68.267l-106.667 128-106.667-128h64z" />
<glyph unicode="&#xe937;" glyph-name="users-state-law" d="M810.667 768h12.8c0 8.533 0 12.8 0 17.067s0 8.533 0 17.067c-42.667 0-89.6 0-136.533 0s-93.867 0-136.533 0c0 8.533 0 12.8 0 21.333s0 17.067 0 21.333h-98.133c0-8.533 0-12.8-4.267-17.067 0-8.533 0-17.067 0-21.333h-251.733c0-8.533 0-12.8 0-17.067s0-8.533 0-17.067h17.067c-51.2-110.933-102.4-221.867-153.6-332.8-4.267-93.867 98.133-149.333 187.733-145.067 68.267 17.067 119.467 46.933 136.533 115.2 0 8.533 4.267 21.333 4.267 29.867-17.067 38.4-149.333 324.267-149.333 324.267h213.333v-614.4c-4.267 0-8.533-4.267-12.8-4.267-46.933-12.8-123.733-34.133-145.067-93.867h413.867c-34.133 89.6-153.6 102.4-153.6 102.4v166.4c0 72.533 0 145.067 0 217.6s0 145.067 0 217.6c34.133 0 76.8 0 115.2 0s81.067 0 115.2 0c-25.6-55.467-51.2-115.2-76.8-170.667-25.6-51.2-46.933-102.4-72.533-153.6 12.8-136.533 145.067-140.8 183.467-140.8 72.533 17.067 140.8 64 140.8 145.067l-149.333 332.8zM366.933 435.2h-281.6l140.8 311.467c46.933-102.4 145.067-311.467 140.8-311.467zM657.067 435.2l136.533 311.467c46.933-102.4 140.8-311.467 140.8-311.467h-277.333z" />
<glyph unicode="&#xe938;" glyph-name="top-humb" d="M213.333 266.667h597.333v-64h-597.333v64zM213.333 480h597.333v-64h-597.333v64zM213.333 693.333h597.333v-64h-597.333v64z" />
<glyph unicode="&#xe939;" glyph-name="users-mode-config" d="M174.933 341.333v0c-4.267 0-4.267 0-4.267 0-8.533 0-17.067 0-25.6 0s-17.067 0-25.6 4.267c-17.067 8.533-34.133 25.6-42.667 42.667-17.067 25.6-25.6 55.467-25.6 85.333 0 8.533 4.267 12.8 4.267 21.333s4.267 12.8 4.267 17.067c0 4.267 0 12.8 4.267 21.333 0 8.533 4.267 12.8 4.267 17.067 4.267 21.333 12.8 42.667 25.6 64 38.4 72.533 93.867 136.533 162.133 187.733 17.067 12.8 38.4 25.6 59.733 34.133 4.267 0 8.533 4.267 17.067 8.533s17.067 4.267 21.333 8.533c4.267 0 8.533 0 17.067 4.267 4.267 4.267 12.8 4.267 12.8 12.8 29.867 4.267 64 0 89.6-12.8 17.067-4.267 34.133-17.067 46.933-34.133 4.267-8.533 4.267-17.067 8.533-25.6 0-8.533 4.267-17.067 4.267-25.6 0-4.267 0-4.267 0-8.533-4.267-8.533-17.067-17.067-25.6-21.333-4.267-4.267-8.533-8.533-17.067-12.8s-12.8-8.533-21.333-12.8c-4.267-4.267-12.8-8.533-17.067-12.8 0-4.267-4.267-4.267-8.533-8.533s-8.533-4.267-12.8-8.533c0-4.267-4.267-4.267-8.533-4.267s-12.8 4.267-17.067 8.533c-8.533 8.533-17.067 12.8-21.333 21.333-8.533 8.533-17.067 12.8-21.333 25.6-4.267 4.267-8.533 8.533-17.067 8.533-4.267-4.267-4.267-4.267-8.533-4.267s-4.267-4.267-8.533-4.267c0 0-4.267 0-8.533-4.267s-8.533-4.267-8.533-4.267c-59.733-38.4-106.667-93.867-136.533-157.867v0c0-4.267-4.267-4.267-4.267-8.533s-4.267-8.533-4.267-8.533-4.267-4.267-4.267-8.533 0-4.267 0-8.533c4.267-8.533 8.533-12.8 8.533-21.333 8.533-4.267 17.067-12.8 25.6-17.067s17.067-8.533 25.6-17.067c8.533-4.267 12.8-8.533 12.8-17.067 0 0 0-4.267 0-8.533-4.267-4.267-4.267-8.533-8.533-12.8 0-4.267-4.267-8.533-4.267-8.533 0-8.533-4.267-12.8-8.533-21.333s-8.533-17.067-12.8-21.333c-4.267-8.533-4.267-17.067-8.533-21.333-4.267-12.8-8.533-21.333-17.067-29.867zM814.933 277.333c0-89.6-128-162.133-285.867-170.667-34.133-34.133-89.6-76.8-145.067-76.8 29.867 17.067 51.2 46.933 59.733 81.067-136.533 17.067-234.667 85.333-234.667 166.4 0 93.867 136.533 170.667 302.933 170.667s302.933-76.8 302.933-170.667zM413.867 294.4c-4.267 12.8-21.333 25.6-38.4 25.6v0c-8.533 0-21.333-4.267-25.6-12.8s-8.533-21.333-8.533-29.867c0-17.067 8.533-29.867 25.6-34.133 12.8-4.267 29.867-4.267 42.667 8.533 8.533 8.533 12.8 25.6 4.267 42.667zM512 315.733v0c-12.8 0-21.333-4.267-25.6-8.533-8.533-8.533-12.8-21.333-12.8-29.867 0-21.333 17.067-38.4 38.4-38.4s38.4 17.067 38.4 38.4c0 21.333-17.067 38.4-38.4 38.4zM678.4 294.4c-4.267 12.8-21.333 25.6-38.4 25.6v0c-8.533 0-21.333-4.267-25.6-12.8-8.533-8.533-12.8-17.067-12.8-25.6 0-17.067 8.533-29.867 25.6-34.133 12.8-4.267 29.867-4.267 42.667 8.533 12.8 4.267 17.067 21.333 8.533 38.4zM814.933 593.067l157.867 46.933-102.4-243.2-55.467 196.267zM981.333 661.333l-384 166.4 128-238.933 256 72.533zM486.4 563.2l102.4 243.2 76.8-145.067-179.2-98.133zM802.133 593.067l-89.6-25.6-42.667 81.067-170.667-93.867 358.4-153.6-55.467 192z" />
<glyph unicode="&#xe93a;" glyph-name="users-url" d="M452.267 849.067c-119.467 0-243.2 0-354.133 0-12.8-4.267-21.333-12.8-29.867-21.333 0-4.267 0-8.533 0-12.8s4.267-12.8 0-21.333c-4.267-68.267-4.267-490.667-4.267-601.6 0-8.533 0-17.067 0-25.6 0-38.4-4.267-76.8 17.067-93.867 21.333-12.8 81.067-8.533 132.267-8.533 12.8 0 29.867 0 38.4 0h507.733c12.8 0 29.867 0 42.667 0 55.467-4.267 119.467-8.533 140.8 17.067 12.8 21.333 12.8 174.933 8.533 264.533 0 21.333 0 42.667 0 51.2v328.533c0 8.533 0 17.067 0 25.6 0 38.4 4.267 81.067-21.333 93.867-12.8 4.267-29.867 8.533-42.667 8.533 72.533-8.533-157.867-4.267-435.2-4.267zM891.733 652.8h-768c0 38.4 0 81.067 0 119.467l8.533 17.067c89.6 0 170.667 0 256 0v0 0 0 0 0c106.667 0 213.333 0 324.267 0 46.933 4.267 93.867 4.267 140.8 0 12.8 0 25.6-4.267 34.133-12.8l4.267-123.733zM149.333 742.4l-8.533-12.8-4.267-17.067 12.8-12.8h17.067c4.267 4.267 4.267 8.533 8.533 12.8l4.267 17.067-12.8 8.533-17.067 4.267zM234.667 738.133l8.533-4.267v-17.067c-4.267-12.8-29.867-25.6-38.4-4.267 0 4.267-4.267 12.8 0 17.067l12.8 12.8 17.067-4.267zM285.867 742.4l-8.533-12.8v-17.067c0-4.267 4.267-8.533 8.533-12.8h21.333c8.533 8.533 8.533 21.333 8.533 29.867l-12.8 8.533-17.067 4.267zM166.4 315.733v187.733h34.133v-81.067c0 0 0 0 4.267 4.267v0c12.8 12.8 29.867 25.6 55.467 17.067 34.133-12.8 29.867-64 29.867-110.933v0 0 0 0 0 0 0 0c0-4.267 0-8.533 0-17.067h-38.4l-4.267 85.333-8.533 12.8h-17.067c-4.267 0-8.533-4.267-8.533-8.533-12.8-12.8-8.533-46.933-8.533-76.8 0-4.267 0-8.533 0-12.8h-38.4zM725.333 298.667c12.8 64 25.6 132.267 38.4 204.8h25.6l-38.4-204.8h-25.6zM819.2 298.667h-25.6l38.4 204.8h25.6l-38.4-204.8zM328.533 486.4l38.4 4.267v-46.933h29.867v-25.6h-29.867c0-4.267 0-8.533 0-12.8 0-21.333-4.267-42.667 4.267-55.467 4.267-8.533 12.8-8.533 21.333-4.267l4.267-21.333c-17.067-8.533-42.667-12.8-55.467 0-21.333 12.8-17.067 55.467-17.067 85.333v0c0 4.267 0 4.267 0 8.533h-17.067v25.6h21.333v42.667zM426.667 439.467v42.667l38.4 4.267v-51.2h29.867v-25.6h-29.867c0-4.267 0-8.533 0-12.8v0 0 0c0-21.333 0-46.933 4.267-55.467s17.067-8.533 21.333-4.267c4.267-8.533 4.267-12.8 4.267-21.333v0c-17.067-4.267-42.667-8.533-55.467 0-17.067 12.8-17.067 51.2-17.067 85.333 0 4.267 0 4.267 0 8.533h-17.067v25.6h21.333v4.267zM554.667 439.467v-21.333c38.4 29.867 81.067 25.6 93.867-25.6 17.067-76.8-51.2-98.133-93.867-64v-64h-38.4v174.933h38.4zM669.867 401.067v38.4h38.4v-38.4h-38.4zM571.733 413.867c12.8 4.267 25.6-4.267 29.867-12.8 8.533-12.8 8.533-25.6 4.267-38.4s-17.067-21.333-34.133-21.333c-4.267 0-12.8 4.267-12.8 8.533-8.533 17.067-8.533 38.4 0 55.467l12.8 8.533zM669.867 315.733v38.4h38.4v-38.4h-38.4z" />
<glyph unicode="&#xe93b;" glyph-name="users-reports" d="M345.6 465.067h-106.667v-217.6h110.933v217.6zM512 686.933h-110.933v-439.467h110.933v439.467zM951.467 192h-823.467v601.6h-55.467v-657.067h878.933v55.467zM678.4 576h-110.933v-328.533h110.933v328.533zM840.533 742.4h-110.933v-494.933h110.933v494.933z" />
<glyph unicode="&#xe93c;" glyph-name="users-alert" d="M567.467 217.6c0-8.533-4.267-12.8-12.8-12.8h-85.333c-8.533 0-12.8 8.533-12.8 12.8v81.067c0 8.533 4.267 12.8 12.8 12.8h85.333c8.533 0 12.8-8.533 12.8-12.8v-81.067zM567.467 379.733c0-4.267-8.533-8.533-12.8-8.533h-81.067c-8.533 0-12.8 4.267-12.8 8.533l-8.533 196.267c0 4.267 0 8.533 4.267 8.533 4.267 4.267 8.533 4.267 8.533 4.267h93.867c4.267 0 8.533-4.267 8.533-4.267 4.267-4.267 4.267-8.533 4.267-8.533l-4.267-196.267zM558.933 780.8c-8.533 17.067-29.867 29.867-46.933 29.867s-38.4-12.8-46.933-29.867l-328.533-605.867c-8.533-17.067-8.533-38.4 0-55.467s29.867-25.6 46.933-25.6h657.067c21.333 0 38.4 8.533 46.933 25.6s8.533 38.4 0 55.467l-328.533 605.867z" />
<glyph unicode="&#xe93d;" glyph-name="users-area-zip" d="M635.733 200.533c68.267 115.2 145.067 256 153.6 285.867 72.533 238.933-81.067 405.333-273.067 413.867-55.467 4.267-110.933-8.533-162.133-38.4-102.4-59.733-196.267-213.333-128-375.467 21.333-51.2 132.267-281.6 196.267-371.2 4.267-8.533 12.8-25.6 21.333-42.667s17.067-38.4 25.6-46.933c-4.267 4.267 25.6-64 68.267 4.267 8.533 8.533 12.8 21.333 21.333 38.4 34.133 55.467 8.533 17.067 76.8 132.267zM349.867 665.6c25.6 59.733 81.067 98.133 145.067 98.133v0c85.333 0 157.867-72.533 157.867-157.867 0-64-38.4-119.467-98.133-145.067s-128-8.533-170.667 34.133c-46.933 46.933-59.733 115.2-34.133 170.667z" />
<glyph unicode="&#xe93e;" glyph-name="users-attempt-counter" d="M759.467 725.333c0-25.6-25.6-42.667-51.2-42.667-42.667 0-59.733 25.6-59.733 55.467s17.067 55.467 46.933 55.467c34.133 4.267 64-34.133 64-68.267zM499.2 234.667c0 8.533-4.267 12.8-12.8 12.8h-85.333v588.8c0 8.533-4.267 12.8-12.8 12.8h-81.067c-8.533 0-12.8-4.267-12.8-12.8v-588.8h-85.333c-4.267 0-12.8-4.267-12.8-8.533-4.267-4.267 0-12.8 4.267-17.067l136.533-136.533c4.267-4.267 8.533-4.267 8.533-4.267 4.267 0 8.533 0 8.533 4.267l136.533 136.533c4.267 4.267 8.533 8.533 8.533 12.8zM806.4 132.267h-72.533v281.6h-51.2l-81.067-81.067 34.133-38.4 25.6 25.6c4.267 4.267 8.533 8.533 12.8 12.8l4.267 4.267v-8.533c0-4.267 0-8.533 0-17.067v-183.467h-72.533v-46.933h200.533v51.2zM819.2 699.733c0 93.867-55.467 149.333-123.733 149.333-64 0-106.667-46.933-106.667-106.667 0-55.467 42.667-106.667 102.4-106.667 25.6 0 51.2 8.533 64 21.333v0c-8.533-42.667-34.133-85.333-85.333-85.333-12.8 0-25.6 4.267-34.133 4.267-4.267 0-8.533 4.267-12.8 4.267l-17.067-46.933c4.267-4.267 12.8-4.267 17.067-8.533 12.8-4.267 25.6-8.533 46.933-8.533 102.4 4.267 149.333 98.133 149.333 183.467z" />
<glyph unicode="&#xe93f;" glyph-name="users-email" d="M972.8 712.533h-925.867l465.067-307.2 460.8 307.2zM977.067 674.133l-285.867-187.733 285.867-290.133v477.867zM42.667 196.267v477.867l285.867-187.733-285.867-290.133zM512 366.933v0l-157.867 106.667-273.067-281.6h861.867l-273.067 277.333-157.867-102.4z" />
<glyph unicode="&#xe940;" glyph-name="users-sms" d="M507.733 768c-251.733 0-456.533-115.2-460.8-256 0-123.733 153.6-226.133 354.133-251.733-12.8-42.667-42.667-98.133-85.333-123.733 85.333 0 166.4 64 221.867 119.467 238.933 8.533 430.933 119.467 430.933 256 0 140.8-209.067 256-460.8 256zM349.867 469.333c-17.067-17.067-42.667-21.333-64-12.8-25.6 8.533-38.4 29.867-38.4 55.467 0 17.067 4.267 29.867 17.067 42.667s25.6 17.067 42.667 17.067c25.6 0 46.933-12.8 55.467-34.133s4.267-46.933-12.8-68.267zM507.733 452.267c-34.133 0-59.733 25.6-59.733 59.733 0 17.067 8.533 29.867 17.067 42.667 12.8 12.8 25.6 17.067 42.667 17.067 34.133 0 59.733-25.6 59.733-59.733s-25.6-59.733-59.733-59.733zM750.933 469.333c-17.067-17.067-42.667-21.333-64-12.8-25.6 8.533-38.4 29.867-38.4 55.467 0 17.067 4.267 29.867 17.067 42.667s25.6 17.067 42.667 17.067c25.6 0 46.933-12.8 55.467-34.133 8.533-25.6 4.267-46.933-12.8-68.267z" />
<glyph unicode="&#xe941;" glyph-name="users-dimension" d="M541.867 140.8v345.6l294.4 106.667v-294.4l-294.4-157.867zM512 537.6l-324.267 119.467 324.267 115.2 324.267-115.2-324.267-119.467zM896 652.8c0 25.6-17.067 46.933-38.4 55.467l-324.267 119.467c-8.533 4.267-12.8 4.267-21.333 4.267s-12.8 0-21.333-4.267l-324.267-119.467c-21.333-8.533-38.4-29.867-38.4-55.467v-354.133c0-21.333 12.8-42.667 29.867-51.2l324.267-179.2c8.533-4.267 17.067-8.533 29.867-8.533 8.533 0 21.333 4.267 29.867 8.533l324.267 179.2c17.067 8.533 29.867 29.867 29.867 51.2v354.133z" />
<glyph unicode="&#xe942;" glyph-name="users-profile" d="M712.533 780.8c12.8 0 29.867 0 46.933 0 64 0 153.6 4.267 179.2-12.8 29.867-25.6 25.6-200.533 21.333-307.2 0-25.6 0-46.933 0-59.733s0-34.133 0-55.467v0 0 0 0 0 0c4.267-72.533 8.533-183.467-8.533-209.067-21.333-29.867-93.867-29.867-153.6-25.6-17.067 0-29.867 0-42.667 0h-516.267c-12.8 0-25.6 0-38.4 0-55.467 0-119.467-4.267-140.8 29.867-12.8 25.6-12.8 72.533-8.533 115.2 0 12.8 0 25.6 0 38.4v315.733c0 12.8 0 25.6 0 38.4 0 38.4-4.267 76.8 4.267 102.4 8.533 12.8 21.333 17.067 34.133 25.6v0 0c4.267 0 8.533 4.267 12.8 4.267h610.133zM887.467 627.2v51.2h-302.933v-51.2h302.933zM307.2 644.267c-42.667-17.067-72.533-34.133-85.333-81.067-21.333-72.533 34.133-162.133 110.933-145.067 115.2 21.333 110.933 226.133-25.6 226.133v0zM584.533 524.8h302.933v51.2h-302.933v-51.2zM584.533 473.6v-51.2h302.933v51.2h-302.933zM260.267 392.533v0 0 0zM260.267 392.533c-8.533-8.533-25.6-17.067-46.933-25.6-38.4-17.067-81.067-38.4-85.333-59.733s0-42.667 12.8-59.733c12.8-8.533 42.667-8.533 68.267-8.533v0c8.533 0 12.8 0 21.333 0 17.067 0 38.4 0 59.733 0 76.8-4.267 183.467-8.533 213.333 17.067 4.267 17.067 12.8 51.2 0 64l-128 72.533-29.867-12.8c-29.867-4.267-59.733 0-85.333 12.8zM584.533 371.2v-51.2h302.933v51.2h-302.933zM584.533 217.6h302.933v51.2h-302.933c0-17.067 0-34.133 0-51.2z" />
<glyph unicode="&#xe943;" glyph-name="users-unified-list" d="M290.133 157.867c0 29.867-17.067 51.2-46.933 59.733l42.667 51.2v38.4h-145.067v-72.533h46.933v21.333c12.8 0 29.867 0 42.667 0v0c-17.067-17.067-34.133-38.4-46.933-59.733l12.8-25.6c17.067 0 46.933 0 46.933-25.6 0-17.067-17.067-25.6-29.867-25.6-17.067 0-34.133 8.533-46.933 21.333l-25.6-38.4c21.333-21.333 46.933-29.867 72.533-29.867 42.667 8.533 76.8 38.4 76.8 85.333zM290.133 426.667h-42.667v-25.6h-55.467c0 34.133 93.867 46.933 93.867 110.933 0 38.4-34.133 64-72.533 64-34.133 0-59.733-17.067-76.8-46.933l38.4-25.6c8.533 12.8 21.333 25.6 34.133 25.6s21.333-8.533 21.333-21.333c0-34.133-98.133-46.933-98.133-128 0-8.533 0-17.067 4.267-21.333h153.6v68.267zM896 285.867c0 8.533-8.533 12.8-12.8 12.8h-520.533c-8.533 0-12.8-4.267-12.8-12.8v-81.067c0-8.533 4.267-12.8 12.8-12.8h520.533c8.533 0 12.8 8.533 12.8 12.8v81.067zM294.4 674.133h-46.933v170.667h-46.933l-59.733-51.2 29.867-34.133c8.533 8.533 17.067 12.8 21.333 21.333v0-4.267c0-34.133 0-68.267 0-102.4h-42.667v-42.667h145.067v42.667zM896 507.733c0 8.533-8.533 12.8-12.8 12.8h-520.533c-8.533 0-12.8-4.267-12.8-12.8v-81.067c0-8.533 4.267-12.8 12.8-12.8h520.533c8.533 0 12.8 8.533 12.8 12.8v81.067zM896 725.333c0 8.533-8.533 12.8-12.8 12.8h-520.533c-8.533 0-12.8-8.533-12.8-12.8v-81.067c0-8.533 4.267-12.8 12.8-12.8h520.533c8.533 0 12.8 8.533 12.8 12.8v81.067z" />
<glyph unicode="&#xe944;" glyph-name="users-license" d="M842.667 279.893c9.813 0 49.493 39.253 49.493 49.493 0 12.373-119.467 125.013-135.253 140.8-2.56 2.56-6.4 4.267-9.813 4.267-9.813 0-49.493-39.253-49.493-49.493 0-11.093 40.107-45.653 49.493-55.040l-40.96-40.96-152.32 152.32c33.28 44.8 56.32 99.84 56.32 156.587 0 93.44-64.853 157.867-157.867 157.867-141.227-0.427-281.6-140.8-281.6-281.6 0-93.013 64.427-157.867 157.867-157.867 56.747 0 111.36 22.613 156.587 56.32l287.573-287.573c7.68-7.68 18.347-11.947 29.013-11.947 23.893 0 51.627 27.307 51.627 51.627 0 10.667-4.267 21.333-11.947 29.013l-94.72 94.293 40.96 40.96c9.387-8.96 43.947-49.067 55.040-49.067zM453.973 514.56c-55.893-55.893-129.707-72.533-165.12-37.12s-18.773 109.227 37.12 165.12 129.707 72.533 165.12 37.12c35.413-35.413 18.773-109.227-37.12-165.12z" />
</font>
</defs>
</svg>
